{"glyphs":{"0":{"ha":882,"x_min":22,"x_max":861,"o":"m 349 598 l 320 249 l 320 212 q 473 32 320 32 l 513 32 q 604 126 597 36 q 636 441 627 336 q 646 572 646 546 q 586 667 618 648 q 541 692 554 686 q 475 701 519 699 q 382 666 415 703 q 349 598 349 629 m 861 431 l 861 427 q 818 92 861 313 q 777 -11 817 35 l 760 -27 q 711 -63 740 -47 q 432 -137 587 -137 q 339 -131 387 -137 q 121 -55 239 -127 q 22 218 30 18 q 22 315 22 269 q 23 445 22 385 q 49 674 24 564 q 160 812 50 754 q 496 882 283 876 l 515 883 l 535 883 q 758 823 722 883 q 851 603 838 747 q 861 431 860 545 z "},"1":{"ha":506,"x_min":22,"x_max":484,"o":"m 372 850 q 389 851 381 851 q 484 751 484 851 l 452 -77 q 223 -130 376 -123 l 220 -130 q 214 -117 208 -130 l 203 644 l 46 629 q 30 642 30 629 l 22 822 l 255 842 l 372 850 z "},"2":{"ha":985,"x_min":22,"x_max":964,"o":"m 40 184 q 106 311 43 241 q 231 376 149 355 q 602 494 527 456 q 620 522 614 505 q 625 630 625 616 q 498 690 625 690 q 432 656 437 691 l 427 491 q 380 448 424 452 q 71 437 265 441 q 39 504 47 450 q 113 789 35 731 q 365 846 180 846 l 492 851 l 705 851 q 885 761 844 851 q 912 605 897 745 q 804 417 912 484 l 444 284 q 370 189 387 270 l 363 68 q 401 45 359 39 l 899 138 q 964 88 949 134 l 964 -76 q 903 -126 964 -122 l 60 -130 q 22 -65 22 -107 l 37 157 l 40 184 z "},"3":{"ha":987,"x_min":22,"x_max":965,"o":"m 743 418 q 770 412 756 415 q 890 353 848 393 q 965 96 965 269 l 964 63 q 836 -72 960 -17 q 437 -128 674 -127 l 416 -128 q 140 -86 186 -128 q 22 123 22 22 l 22 138 q 57 198 22 198 l 386 193 q 449 160 449 193 l 448 119 q 474 27 448 35 q 550 20 500 20 q 642 132 642 20 q 564 327 650 307 l 434 367 l 441 442 l 493 456 q 629 515 591 495 q 647 541 642 524 q 652 641 652 627 q 529 696 652 696 q 466 665 471 697 q 437 496 458 515 q 376 487 433 486 l 120 491 q 83 519 83 492 q 158 788 83 734 q 401 841 222 841 l 524 845 l 728 845 q 903 762 864 845 q 929 618 913 747 q 824 443 929 504 l 743 418 z "},"4":{"ha":961,"x_min":22,"x_max":939,"o":"m 812 428 l 939 434 l 922 269 l 810 250 l 804 -134 l 559 -104 l 548 207 l 235 155 q 22 338 22 164 q 56 502 22 407 l 123 703 l 77 709 l 47 711 l 32 712 q 22 722 22 713 q 25 734 22 727 l 78 860 q 107 880 87 880 l 109 880 l 414 861 l 382 726 l 326 544 q 423 410 282 365 l 541 415 l 526 814 l 818 871 l 812 428 z "},"5":{"ha":942,"x_min":22,"x_max":920,"o":"m 109 418 q 109 420 109 419 q 39 574 45 490 l 24 797 q 62 862 24 839 l 859 858 q 920 808 920 854 l 920 643 q 855 593 905 597 l 344 686 q 305 663 301 692 l 313 543 q 337 481 321 505 l 336 481 q 394 468 353 467 l 708 468 q 892 387 851 468 q 920 246 904 372 l 920 117 q 893 -38 905 -22 q 713 -128 852 -128 l 500 -128 l 347 -123 q 95 -66 161 -123 q 22 197 22 -10 l 22 219 q 52 286 29 272 q 361 275 248 282 q 408 231 406 271 l 414 66 q 506 32 419 31 q 633 93 633 32 q 629 180 633 105 q 627 203 627 191 q 627 205 627 203 l 628 205 q 627 269 627 258 q 507 322 627 321 l 350 327 q 152 378 220 327 q 109 418 130 393 z "},"6":{"ha":971,"x_min":22,"x_max":938,"o":"m 406 -127 q 335 -125 372 -127 q 87 -63 151 -121 q 22 165 22 -9 q 24 226 22 194 q 39 449 31 351 q 59 681 47 566 q 186 810 66 760 q 519 852 325 852 q 570 851 544 852 l 589 851 q 819 794 772 836 q 920 591 920 687 l 920 585 q 883 513 917 512 l 606 534 q 547 569 545 537 l 550 610 q 529 700 553 692 q 457 709 505 707 q 363 603 369 711 q 358 503 359 534 q 385 475 357 473 q 748 441 573 493 q 874 367 833 408 q 938 151 938 296 q 936 96 938 125 l 935 64 q 807 -71 931 -16 q 462 -126 664 -120 q 456 -127 459 -127 l 406 -127 l 406 -127 m 604 252 q 588 289 597 273 q 486 313 560 310 l 411 319 q 411 225 410 257 l 410 60 q 474 22 414 24 q 603 79 601 19 q 602 167 604 92 q 604 252 603 234 z "},"7":{"ha":881,"x_min":22,"x_max":859,"o":"m 695 561 q 427 -71 511 256 q 348 -127 410 -127 l 333 -127 q 142 -95 259 -127 q 129 5 81 -72 q 604 684 275 378 q 621 708 619 700 q 570 707 623 715 l 94 613 q 22 663 38 617 l 22 814 q 90 864 22 860 l 827 864 q 858 834 854 861 q 859 821 859 827 q 850 789 859 802 q 776 690 804 728 q 695 561 749 652 z "},"8":{"ha":1006,"x_min":22,"x_max":984,"o":"m 98 608 q 102 660 98 634 q 115 711 106 686 q 139 756 124 735 q 177 794 155 778 q 237 827 202 812 q 309 852 271 842 q 384 869 347 863 q 451 876 421 876 q 463 877 452 876 q 503 879 473 878 l 514 879 q 589 878 543 879 q 734 871 644 876 q 787 862 759 869 q 842 842 816 854 q 889 810 868 829 q 922 767 911 792 q 938 696 934 732 q 948 624 943 661 l 948 616 q 940 566 948 590 q 918 520 932 541 q 885 481 904 498 q 842 452 865 463 l 762 428 l 789 422 q 853 398 822 413 q 909 360 884 384 q 946 302 932 334 q 969 238 961 271 q 981 169 977 204 q 984 100 984 134 l 984 68 q 969 21 982 42 q 939 -16 957 1 q 898 -45 920 -33 q 855 -67 876 -58 q 658 -111 758 -100 q 456 -123 557 -123 l 383 -123 q 323 -120 354 -123 q 261 -109 292 -116 q 201 -90 231 -101 q 147 -64 172 -79 q 103 -21 124 -43 q 66 26 82 1 q 40 80 50 52 q 30 140 31 108 l 24 157 q 23 171 24 165 q 22 183 22 176 q 22 190 22 188 l 28 224 q 40 264 32 245 q 56 302 48 282 q 85 339 67 324 q 120 371 102 353 q 152 393 134 384 q 189 408 171 401 l 264 434 q 211 446 237 437 q 163 470 186 455 q 137 493 149 479 q 118 523 126 507 q 104 556 109 539 q 99 590 100 574 l 98 608 m 456 130 q 460 104 458 117 q 465 77 461 90 q 474 53 468 64 q 492 35 480 42 q 530 29 511 30 q 568 28 549 28 q 578 27 572 27 q 613 36 597 27 q 639 60 628 45 q 655 92 650 74 q 661 128 661 110 q 661 135 661 132 q 660 141 661 138 l 661 173 l 661 184 q 657 232 661 208 q 646 278 654 257 q 622 316 637 300 q 582 341 607 333 l 572 345 l 553 345 q 494 326 521 345 q 458 277 468 307 q 452 243 453 260 q 451 209 451 227 q 453 169 451 189 q 456 130 455 149 m 595 504 q 621 515 608 509 q 648 526 634 520 q 665 551 661 536 q 668 600 667 576 q 670 649 669 625 q 653 681 667 670 q 622 697 640 692 q 584 703 604 702 q 547 705 564 704 l 543 705 q 520 702 532 705 q 498 692 509 699 q 481 677 488 686 q 473 657 474 669 q 461 612 463 633 q 456 566 460 590 l 456 564 q 459 546 456 555 q 467 527 462 536 q 480 512 473 519 q 498 503 488 505 q 514 501 506 501 q 531 501 523 501 q 562 502 547 501 q 593 504 577 503 l 595 504 z "},"9":{"ha":1002,"x_min":22,"x_max":980,"o":"m 630 510 l 625 631 q 507 675 599 669 q 372 620 372 675 q 378 533 372 608 q 380 489 380 522 q 398 427 380 455 q 532 391 415 398 q 605 420 581 407 q 627 458 621 434 q 630 510 629 487 m 344 872 q 534 893 443 893 q 684 878 612 893 q 906 788 840 844 q 980 525 980 732 l 980 503 q 964 47 977 376 q 840 -84 960 -31 q 459 -138 686 -137 l 439 -138 q 175 -98 220 -138 q 62 106 62 7 l 62 119 q 96 179 62 179 l 410 174 q 471 142 471 174 l 469 101 q 494 13 469 20 q 566 6 519 6 q 655 115 655 6 q 656 250 656 186 q 229 231 534 198 q 175 246 217 234 q 94 304 132 258 q 25 581 27 395 l 22 578 q 94 777 32 730 q 344 872 160 833 z "}," ":{"ha":543,"x_min":0,"x_max":0,"o":""},"!":{"ha":447,"x_min":22,"x_max":425,"o":"m 214 67 l 320 46 q 425 -54 409 28 q 254 -94 416 -94 q 144 -90 206 -94 q 22 -1 22 -57 q 23 12 22 5 l 26 24 q 214 67 111 87 m 123 769 l 397 781 q 413 741 418 777 q 327 362 351 441 q 302 161 302 283 q 273 141 297 141 l 144 149 q 107 190 115 153 q 74 736 94 469 q 123 769 78 777 z "},"\"":{"ha":451,"x_min":22,"x_max":429,"o":"m 91 1010 l 207 962 l 111 812 l 22 846 l 91 1010 m 313 1010 l 429 962 l 334 812 l 244 846 l 313 1010 z "},"#":{"ha":914,"x_min":22,"x_max":892,"o":"m 497 882 l 530 880 q 559 841 576 866 q 488 706 543 816 q 241 165 434 596 q 191 117 227 117 q 132 117 156 117 q 122 171 89 118 q 214 350 155 224 q 334 604 273 475 q 446 844 428 806 q 497 882 463 882 m 417 114 l 384 115 q 355 155 338 130 q 426 290 372 180 q 673 831 480 399 q 724 879 688 879 q 783 879 759 879 q 793 824 826 878 q 701 646 760 771 q 580 392 641 520 q 469 152 486 189 q 417 114 452 114 m 469 315 q 237 314 352 314 q 65 305 122 314 q 22 321 22 298 q 26 338 22 328 q 57 401 39 364 q 119 430 74 439 q 609 419 508 417 q 741 429 711 422 q 758 380 771 435 l 742 346 q 690 312 726 311 q 469 315 654 312 m 445 681 q 678 682 563 682 q 850 690 793 682 q 892 675 892 697 q 888 657 892 668 q 858 594 876 631 q 795 566 840 557 q 306 576 407 578 q 174 567 204 574 q 157 616 144 560 l 173 650 q 224 684 189 684 q 445 681 260 684 z "},"$":{"ha":758,"x_min":22,"x_max":736,"o":"m 300 853 l 311 971 l 492 989 l 501 848 q 659 792 613 842 q 716 521 716 735 l 716 479 l 564 473 q 503 491 509 473 q 481 661 487 510 q 378 677 479 678 q 300 639 300 677 q 303 543 300 625 q 310 527 306 531 q 584 431 358 494 q 679 366 646 411 q 736 108 736 280 l 735 76 q 634 -68 732 -11 q 511 -108 578 -94 l 510 -271 l 277 -234 l 293 -125 q 110 -78 146 -121 q 22 134 22 31 l 22 149 q 64 223 22 223 l 240 218 q 302 170 302 218 l 302 130 q 314 54 302 58 q 419 50 326 50 q 469 144 469 50 q 424 318 475 302 l 150 433 q 66 616 66 498 q 86 762 77 745 q 227 853 118 853 l 300 853 z "},"%":{"ha":968,"x_min":22,"x_max":946,"o":"m 779 871 l 836 870 q 864 828 889 857 q 741 642 840 800 q 293 -133 642 484 q 215 -191 269 -191 l 117 -191 q 129 -124 77 -191 q 289 122 180 -58 q 508 484 397 302 q 706 823 677 774 q 779 871 735 871 m 678 85 l 663 -45 l 663 -60 q 743 -127 663 -127 l 764 -127 q 812 -92 808 -125 q 829 27 824 -13 q 833 76 833 66 q 802 112 819 104 q 779 121 785 119 q 744 125 767 124 q 695 111 713 125 q 678 85 678 97 m 946 23 l 946 22 q 924 -105 946 -22 q 902 -143 923 -126 l 893 -149 q 867 -163 882 -157 q 720 -191 802 -191 q 673 -189 697 -191 q 559 -160 621 -186 q 507 -57 511 -133 q 508 28 507 -9 q 521 115 508 73 q 579 166 522 144 q 755 193 644 190 l 765 193 q 892 170 872 194 q 941 87 934 142 q 946 23 945 66 m 193 761 l 178 629 l 178 616 q 258 548 178 548 l 279 548 q 326 583 322 549 q 343 702 338 663 q 348 751 348 741 q 317 787 334 780 q 293 796 300 794 q 258 800 281 799 q 210 786 227 800 q 193 761 193 772 m 438 570 q 416 532 437 549 l 408 526 q 382 512 397 518 q 187 487 298 476 q 73 515 135 488 q 22 618 26 543 l 22 649 q 22 703 22 678 q 35 789 22 748 q 94 842 36 820 q 269 868 158 865 l 279 868 q 407 846 387 869 q 455 763 448 817 q 460 698 460 741 q 438 570 460 655 z "},"&":{"ha":909,"x_min":22,"x_max":879,"o":"m 264 855 l 315 855 q 450 740 422 833 q 404 684 435 707 q 328 768 366 761 q 248 697 264 762 q 277 576 231 631 l 380 614 l 427 497 q 264 427 418 479 q 137 265 142 400 q 189 109 156 168 q 277 19 222 49 q 395 -1 332 -11 q 529 94 459 9 q 543 288 600 178 l 508 288 q 370 229 418 288 l 370 218 l 439 241 q 496 126 488 241 l 346 79 q 269 268 275 132 q 473 414 285 373 q 658 412 593 431 q 734 393 723 393 q 743 403 745 392 q 694 497 741 414 l 787 543 q 872 446 857 504 q 879 399 879 421 q 867 340 879 368 q 789 287 845 292 q 681 288 734 282 q 688 115 728 207 q 597 -31 649 24 q 480 -113 546 -85 q 370 -134 433 -134 q 320 -131 347 -134 q 130 -3 225 -120 q 22 311 22 128 q 184 531 22 441 q 133 760 103 665 q 264 855 163 855 z "},"'":{"ha":229,"x_min":22,"x_max":207,"o":"m 91 1010 l 207 962 l 111 812 l 22 846 l 91 1010 z "},"(":{"ha":436,"x_min":22,"x_max":414,"o":"m 410 -159 l 414 -273 q 404 -274 410 -274 q 185 -121 336 -274 q 22 383 22 45 q 117 798 22 675 q 392 1024 212 920 l 396 919 q 131 356 101 740 q 410 -159 161 -28 z "},")":{"ha":436,"x_min":22,"x_max":414,"o":"m 26 909 l 22 1023 q 32 1024 26 1024 q 252 871 100 1024 q 414 367 414 705 q 319 -47 414 75 q 44 -274 224 -170 l 40 -169 q 305 394 335 10 q 26 909 275 778 z "},"*":{"ha":548,"x_min":33,"x_max":526,"o":"m 274 913 q 282 905 279 910 q 280 893 286 899 q 275 880 275 888 q 270 873 277 872 q 258 868 263 874 q 247 865 252 863 q 243 875 241 869 q 240 888 244 882 q 247 899 237 895 q 252 906 244 907 q 264 909 260 905 q 274 913 267 913 m 160 773 q 267 863 256 859 q 300 830 278 867 q 366 757 323 794 q 308 865 312 850 q 330 888 304 880 q 410 902 356 897 q 328 908 355 910 q 289 919 302 907 q 285 1029 275 930 q 245 916 260 937 q 142 958 231 895 q 219 871 214 876 q 160 773 225 867 m 354 971 q 437 993 398 1009 q 519 916 494 969 q 526 885 526 899 q 486 835 526 853 q 345 840 444 816 q 481 755 450 797 q 475 667 522 698 q 407 646 445 646 q 368 652 388 646 q 283 727 305 667 q 263 825 261 787 q 144 657 199 689 q 98 642 118 642 q 52 673 69 642 q 33 739 33 704 q 41 788 33 763 q 162 860 56 833 q 41 927 57 871 q 35 967 35 947 q 56 1036 35 1003 q 149 1060 87 1088 q 212 998 180 1046 q 254 1109 211 1072 q 330 1138 290 1138 q 351 1137 340 1138 q 397 1059 404 1126 q 354 971 393 1023 z "},"+":{"ha":640,"x_min":22,"x_max":618,"o":"m 265 407 l 156 411 l 73 411 q 22 426 22 420 q 41 534 32 535 q 257 522 191 528 l 254 562 l 256 562 q 276 765 256 737 l 375 756 l 389 623 l 385 530 l 416 532 l 416 530 q 618 511 591 531 l 610 412 l 476 398 l 380 402 l 376 302 l 376 220 q 361 168 366 168 q 252 188 252 178 q 265 407 258 340 z "},",":{"ha":292,"x_min":22,"x_max":270,"o":"m 85 -67 q 47 -51 63 -62 q 23 -16 27 -36 q 22 -5 22 -10 q 31 28 22 11 q 71 66 43 50 q 129 89 98 83 q 170 93 149 93 q 192 92 180 93 q 244 73 223 88 q 269 37 264 57 q 270 26 270 32 q 260 -5 270 11 q 87 -216 240 -72 l 22 -174 l 85 -67 z "},"-":{"ha":640,"x_min":22,"x_max":618,"o":"m 276 439 l 416 448 l 416 446 q 618 427 591 447 l 610 328 l 476 314 l 156 327 l 73 327 q 22 342 22 336 q 41 450 32 450 q 262 437 196 444 q 276 437 269 437 l 276 439 z "},".":{"ha":291,"x_min":22,"x_max":269,"o":"m 129 125 q 169 129 149 129 q 191 128 180 129 q 243 109 222 124 q 268 73 264 93 q 269 61 269 67 q 260 31 269 46 q 221 -8 248 8 q 162 -31 194 -24 q 122 -35 142 -35 q 99 -34 111 -35 q 47 -15 67 -30 q 23 20 27 0 q 22 32 22 26 q 31 64 22 47 q 71 102 43 85 q 129 125 98 119 z "},"/":{"ha":860,"x_min":22,"x_max":838,"o":"m 740 950 l 800 949 q 838 921 838 939 q 830 903 838 913 q 699 702 804 872 q 226 -136 595 531 q 142 -200 200 -200 l 39 -200 q 22 -185 22 -199 q 52 -127 22 -168 q 221 139 106 -55 q 453 531 336 334 q 663 898 632 845 q 740 950 693 950 z "},":":{"ha":291,"x_min":22,"x_max":269,"o":"m 129 125 q 191 128 159 132 q 243 109 222 124 q 268 73 264 93 q 269 61 269 67 q 260 31 269 46 q 221 -8 248 8 q 162 -31 194 -24 q 122 -35 142 -35 q 99 -34 111 -35 q 47 -15 67 -30 q 23 20 27 0 q 22 32 22 26 q 31 64 22 47 q 71 102 43 85 q 129 125 98 119 m 129 494 q 168 498 148 498 q 191 496 179 498 q 243 477 222 492 q 268 441 264 462 q 269 430 269 436 q 260 399 269 415 q 221 360 248 377 q 162 337 194 344 q 99 334 130 330 q 47 354 67 338 q 23 389 27 369 q 22 401 22 395 q 31 432 22 416 q 71 471 43 454 q 129 494 98 487 z "},";":{"ha":291,"x_min":22,"x_max":269,"o":"m 129 494 q 168 498 148 498 q 191 496 179 498 q 243 477 222 492 q 268 441 264 462 q 269 430 269 436 q 260 399 269 415 q 221 360 248 377 q 162 337 194 344 q 99 334 130 330 q 47 354 67 338 q 23 389 27 369 q 22 401 22 395 q 31 432 22 416 q 71 471 43 454 q 129 494 98 487 m 85 -31 q 47 -15 63 -26 q 23 20 27 0 q 22 31 22 26 q 31 64 22 47 q 70 102 43 85 q 128 125 98 119 q 191 128 159 132 q 243 109 222 124 q 268 73 264 93 q 269 62 269 68 q 260 31 269 47 q 86 -180 239 -36 l 22 -138 l 85 -31 z "},"<":{"ha":749,"x_min":22,"x_max":727,"o":"m 240 382 q 416 305 310 351 q 727 176 727 195 l 727 176 l 679 75 l 551 109 l 22 347 l 28 385 l 74 447 q 117 481 72 454 l 197 505 l 511 648 l 654 720 l 659 722 l 722 550 l 722 549 q 484 448 722 529 l 240 382 z "},"=":{"ha":694,"x_min":22,"x_max":673,"o":"m 276 312 l 416 325 l 416 321 q 673 295 673 315 l 664 179 l 156 190 l 73 190 q 22 211 22 203 q 41 328 32 329 q 262 310 196 319 q 276 309 269 309 l 276 312 m 420 448 l 282 420 l 282 423 q 24 421 26 402 l 25 549 l 526 583 l 608 591 q 662 576 661 583 q 655 458 665 458 q 433 452 500 450 q 420 452 426 452 l 420 448 z "},">":{"ha":749,"x_min":22,"x_max":727,"o":"m 509 414 q 333 492 439 446 q 22 621 22 602 l 22 621 l 70 722 l 198 688 l 727 450 l 721 412 l 675 350 q 631 315 677 342 l 552 292 l 237 149 l 94 77 l 90 75 l 26 247 l 26 248 q 264 349 26 268 l 509 414 z "},"?":{"ha":932,"x_min":22,"x_max":911,"o":"m 254 123 q 225 353 239 253 q 315 486 225 441 l 577 587 q 607 729 597 610 q 519 814 607 814 q 447 809 472 814 q 422 739 422 804 l 428 707 q 365 682 428 682 l 349 682 l 224 677 l 109 682 l 56 677 q 22 724 22 677 l 22 736 q 134 898 22 814 q 393 930 170 920 l 412 930 q 790 890 629 920 q 911 757 906 839 q 827 559 911 623 q 728 512 801 526 q 494 425 574 460 q 468 163 406 296 q 254 123 365 121 m 338 71 l 429 71 q 536 -6 507 71 q 310 -96 536 -60 q 190 -19 190 -87 l 190 -6 q 338 71 248 71 z "},"@":{"ha":1520,"x_min":22,"x_max":1499,"o":"m 824 264 q 823 266 823 264 q 822 276 823 270 q 822 288 822 281 q 822 300 822 294 q 823 310 822 307 l 823 317 q 793 338 822 342 l 745 335 q 696 303 706 331 q 668 133 663 214 q 738 80 669 75 q 816 120 806 84 l 817 124 q 825 136 817 131 l 824 264 m 977 2 q 958 -4 968 -1 q 778 1 859 -4 q 527 8 635 -11 q 429 87 442 31 q 414 256 411 167 q 432 317 416 286 q 743 406 467 379 l 800 412 q 845 414 823 413 l 845 498 q 778 579 842 583 q 727 571 743 577 q 711 500 710 565 l 717 469 q 671 443 718 445 q 447 426 569 432 q 421 470 422 425 l 420 482 q 496 646 418 559 q 683 688 536 680 l 696 689 q 972 665 854 688 q 1060 573 1058 618 l 1065 536 q 1073 336 1068 455 q 1060 130 1077 216 q 1066 113 1059 118 q 1115 130 1086 117 q 1195 180 1158 150 q 1306 316 1267 238 q 1345 477 1345 395 q 1303 643 1345 566 q 1185 776 1261 720 q 1006 863 1109 832 q 786 894 903 894 q 453 820 601 894 q 221 616 305 747 q 136 324 136 485 q 216 51 136 165 q 448 -123 296 -63 q 812 -182 600 -182 q 1034 -160 935 -182 q 1221 -92 1133 -138 q 1301 -43 1274 -64 q 1358 16 1328 -22 l 1499 16 q 1329 -148 1450 -70 q 1178 -223 1257 -194 q 1008 -266 1099 -252 q 809 -280 916 -280 q 480 -239 627 -280 q 232 -121 334 -198 q 76 67 130 -44 q 22 314 22 178 q 64 545 22 434 q 186 747 106 656 q 371 895 266 838 q 793 990 546 990 q 1022 964 916 990 q 1214 885 1128 938 q 1360 757 1299 833 q 1462 486 1462 631 q 1306 139 1462 287 q 1185 50 1253 88 q 1090 13 1139 25 q 996 1 1042 1 q 977 2 987 1 z "},"A":{"ha":1265,"x_min":22,"x_max":1243,"o":"m 389 -95 q 163 3 243 -58 q 307 408 240 149 q 377 648 349 559 l 233 642 l 231 574 q 40 563 163 570 l 22 806 q 402 846 22 832 q 762 838 679 832 q 1178 845 844 844 l 1187 659 q 1171 639 1183 638 q 845 633 1027 633 q 958 429 890 549 l 1120 140 l 1243 -43 l 1055 -109 q 887 199 970 43 q 777 195 861 193 q 506 202 575 200 q 389 -95 453 54 m 831 307 q 662 640 745 473 l 659 640 l 596 458 l 549 326 l 548 323 q 831 307 671 315 z "},"B":{"ha":953,"x_min":22,"x_max":931,"o":"m 159 604 l 46 612 q 22 644 22 612 l 22 650 l 31 846 l 321 847 l 356 847 q 749 815 646 847 q 849 709 817 783 l 863 603 l 868 490 q 801 372 867 390 q 926 259 891 345 q 931 178 931 229 l 931 157 q 926 62 930 92 l 917 26 q 669 -108 884 -102 l 629 -108 q 100 -83 252 -108 q 159 604 144 579 m 455 699 l 448 620 q 437 474 437 518 q 473 441 453 439 l 547 441 q 595 465 572 441 q 628 631 629 572 q 626 705 627 690 q 595 730 625 720 l 540 735 q 455 699 456 734 m 406 245 l 397 107 q 416 49 386 56 q 629 64 624 16 q 635 199 642 139 l 632 233 q 532 315 633 315 q 410 281 432 312 l 406 245 z "},"C":{"ha":810,"x_min":22,"x_max":788,"o":"m 54 703 q 411 828 97 828 l 476 828 q 745 740 709 817 q 788 557 788 670 l 785 489 q 743 474 780 470 l 633 482 l 516 482 q 507 532 515 482 l 506 581 l 500 659 q 433 686 500 685 l 427 686 q 338 640 366 686 q 288 282 288 413 l 288 220 l 291 157 q 332 80 294 93 l 370 66 q 481 184 461 66 l 606 192 l 704 184 l 722 154 l 722 94 q 411 -98 722 -98 q 128 -30 248 -98 q 28 165 56 31 l 22 360 l 28 563 l 54 703 z "},"D":{"ha":1008,"x_min":22,"x_max":987,"o":"m 946 812 q 987 705 972 784 l 964 267 q 785 20 947 97 q 561 2 714 4 l 526 2 q 147 17 379 2 l 161 746 l 22 754 l 28 955 q 132 958 73 958 q 507 940 278 958 q 946 812 839 906 m 353 191 q 444 180 412 182 l 497 176 q 623 228 621 196 q 684 654 662 385 q 570 774 701 743 l 413 784 q 353 191 380 418 z "},"E":{"ha":1072,"x_min":22,"x_max":1050,"o":"m 607 158 q 416 168 555 162 l 390 -86 q 806 -95 390 -94 l 806 -24 l 844 -18 l 973 -24 l 1025 -24 l 1050 -43 l 1038 -250 q 229 -220 758 -250 l 132 -233 l 113 -195 q 158 165 158 -71 q 184 500 166 460 l 22 492 q 22 511 22 498 q 29 700 22 559 l 29 705 l 434 692 q 860 665 749 692 l 841 421 q 804 424 820 422 q 773 427 788 425 q 743 430 759 429 q 706 433 727 431 l 647 444 l 649 500 l 450 507 l 448 481 l 429 289 l 736 267 l 728 170 q 607 158 719 150 z "},"F":{"ha":876,"x_min":22,"x_max":854,"o":"m 713 854 l 784 850 q 789 848 787 850 l 800 848 q 854 801 854 841 l 854 796 l 842 638 q 777 594 825 595 l 401 691 l 408 498 l 660 471 l 656 330 l 408 349 q 412 12 407 87 q 357 -34 412 -20 l 246 -62 q 221 -66 232 -66 q 187 -36 190 -66 l 158 308 l 125 692 l 33 705 q 25 707 28 705 l 22 707 l 22 708 l 49 904 l 713 854 z "},"G":{"ha":1063,"x_min":22,"x_max":1041,"o":"m 683 9 q 528 4 653 4 q 159 71 317 4 q 29 266 41 140 q 22 460 22 361 q 29 659 22 558 q 62 796 35 724 q 528 924 120 924 l 614 924 q 969 833 916 911 q 1022 652 1022 764 l 1022 583 q 987 553 1023 554 q 665 573 811 557 q 635 594 637 575 q 635 614 635 602 q 642 677 635 627 q 548 772 637 774 l 456 774 q 374 708 392 774 q 319 281 311 509 q 410 174 311 184 q 608 256 585 171 q 613 286 611 271 l 520 283 q 494 298 497 283 l 494 319 l 494 341 q 510 355 494 355 l 995 363 l 1017 363 q 1038 345 1034 363 q 1041 321 1041 335 q 1038 288 1041 307 q 1009 267 1034 264 l 951 264 q 961 -20 954 231 q 980 -38 961 -38 l 1008 -39 q 1031 -56 1031 -39 q 1026 -90 1033 -71 q 1012 -98 1024 -96 q 932 -101 973 -101 q 857 -98 895 -101 q 823 -68 825 -94 q 823 6 825 -27 q 815 38 823 25 q 800 56 810 47 q 763 29 786 39 q 683 9 741 20 z "},"H":{"ha":831,"x_min":22,"x_max":810,"o":"m 570 880 q 781 920 758 920 l 787 920 q 810 902 810 920 l 810 901 l 747 -43 q 722 -78 744 -78 l 718 -78 l 655 -69 l 581 -68 q 524 28 524 -47 l 524 272 q 458 327 524 321 q 372 333 416 335 q 346 296 345 330 q 341 164 338 259 l 344 75 q 314 55 345 55 l 152 45 q 127 72 128 45 q 117 573 113 319 q 93 591 116 593 l 46 585 q 33 593 34 583 q 22 721 23 659 l 22 722 q 35 736 22 736 l 318 742 q 360 709 360 743 l 360 498 q 380 467 360 467 l 503 467 q 526 513 524 467 q 538 847 534 755 q 570 880 538 876 z "},"I":{"ha":496,"x_min":22,"x_max":475,"o":"m 475 833 q 392 -59 401 46 l 241 -80 l 127 -96 l 125 -96 q 121 -82 113 -96 q 195 642 158 280 l 35 635 q 22 646 22 635 l 22 648 l 28 846 l 475 833 z "},"J":{"ha":831,"x_min":22,"x_max":809,"o":"m 548 176 q 540 404 549 337 q 513 617 526 534 l 368 588 q 352 605 355 586 l 331 791 l 330 796 l 747 846 l 765 817 l 779 635 q 801 271 792 345 q 809 144 809 196 q 799 57 804 91 q 786 -1 791 7 q 623 -86 748 -86 l 432 -109 l 318 -104 q 98 -48 133 -104 q 22 218 22 3 l 22 247 q 351 249 229 259 q 380 64 368 242 q 472 52 421 41 q 545 96 524 64 q 548 176 549 136 z "},"K":{"ha":892,"x_min":22,"x_max":871,"o":"m 124 707 l 22 713 l 37 922 q 351 875 105 920 q 382 842 382 870 q 395 507 387 750 l 396 463 l 426 485 l 730 785 q 866 785 806 800 l 871 781 q 551 422 694 568 l 549 418 q 862 -17 578 382 l 647 -26 q 399 314 500 161 l 397 43 q 326 -64 397 -50 l 266 -72 l 203 -81 l 198 -81 q 174 -52 177 -81 l 124 707 z "},"L":{"ha":1204,"x_min":22,"x_max":1182,"o":"m 447 833 l 460 832 l 447 622 l 389 54 q 937 41 389 46 l 937 113 l 976 119 l 1105 113 l 1156 113 l 1182 93 l 1169 -113 q 228 -80 795 -113 l 128 -84 l 112 -54 q 157 307 157 70 q 182 642 165 509 l 35 635 q 22 654 22 635 l 28 841 l 28 846 l 447 833 z "},"M":{"ha":1011,"x_min":22,"x_max":989,"o":"m 287 -110 q 146 -128 221 -128 q 22 -117 87 -128 l 59 841 l 311 850 l 442 218 l 640 791 q 844 803 741 817 l 890 132 l 983 156 l 989 -16 q 741 -49 871 -57 l 717 491 l 460 -60 l 409 -63 l 287 456 l 287 -110 z "},"N":{"ha":811,"x_min":22,"x_max":789,"o":"m 553 88 l 383 461 l 379 292 l 384 -7 q 352 -65 379 -47 l 248 -69 l 185 -78 l 180 -78 q 157 -50 159 -78 l 104 752 l 102 752 l 106 768 q 93 768 100 769 l 46 762 q 33 770 34 761 q 22 899 23 837 l 22 900 q 35 913 22 913 l 138 916 l 139 920 l 319 920 l 329 920 q 336 918 333 919 q 353 909 347 916 q 361 886 361 901 l 361 884 q 372 859 368 874 q 549 376 520 443 q 543 709 543 498 q 585 742 543 743 l 777 718 q 789 704 789 718 l 789 703 q 787 573 787 593 q 757 72 771 319 q 732 45 755 45 l 582 52 q 560 71 569 52 l 553 88 z "},"O":{"ha":885,"x_min":22,"x_max":863,"o":"m 77 726 q 519 843 77 804 q 727 810 635 843 q 863 533 863 715 l 856 109 l 847 76 q 503 -133 795 -133 l 414 -133 q 134 -50 226 -133 q 22 183 22 62 l 45 627 q 77 726 52 650 m 340 589 l 358 111 l 358 83 q 453 58 358 58 l 494 58 q 648 235 648 58 l 648 271 l 640 615 q 545 669 640 657 l 435 669 q 340 589 370 669 z "},"P":{"ha":823,"x_min":22,"x_max":802,"o":"m 387 317 q 496 312 418 304 q 588 398 587 321 l 589 436 q 585 666 600 617 q 475 697 551 693 q 394 692 430 699 l 387 317 m 26 891 q 307 897 195 897 q 398 896 358 897 l 454 895 q 777 795 739 892 l 798 692 l 802 477 l 792 395 q 701 248 766 294 q 444 200 596 198 q 379 200 408 198 q 394 -134 381 6 l 121 -109 l 140 694 l 22 706 q 26 891 22 806 z "},"Q":{"ha":930,"x_min":22,"x_max":909,"o":"m 77 753 q 519 870 77 831 q 727 838 635 870 q 863 560 863 743 l 856 109 l 847 76 q 770 -55 827 -5 l 791 -87 l 822 -58 l 844 -75 q 880 -136 862 -100 l 905 -165 l 909 -170 l 764 -270 l 762 -270 q 644 -117 743 -270 q 503 -133 583 -133 l 414 -133 q 134 -50 226 -133 q 22 183 22 62 l 45 654 q 77 753 48 702 m 549 66 q 540 77 545 72 q 455 200 498 129 q 542 275 450 208 q 553 270 548 279 l 585 228 l 636 150 q 648 235 648 186 l 648 271 l 640 642 q 545 696 640 667 l 435 696 q 340 616 370 696 l 358 111 l 358 83 q 453 58 358 58 l 494 58 q 547 64 524 58 l 549 66 z "},"R":{"ha":1023,"x_min":22,"x_max":1001,"o":"m 391 650 l 401 533 l 404 504 q 474 450 419 453 l 571 446 q 636 538 622 444 q 581 691 651 633 q 467 725 560 715 q 396 711 407 731 l 392 686 q 391 650 390 667 m 845 365 q 800 345 824 353 q 893 160 804 338 l 983 0 l 1001 -53 l 839 -80 q 659 149 819 -85 q 540 334 627 212 q 471 340 506 336 q 398 351 432 345 l 402 120 l 399 -60 l 383 -90 l 121 -75 l 117 126 q 119 629 102 169 l 22 639 q 57 895 34 764 l 227 880 q 500 854 303 873 l 572 846 q 874 784 780 821 q 944 738 931 760 q 948 731 947 734 l 949 724 q 960 675 956 703 q 960 567 966 623 q 939 462 955 511 q 886 389 922 413 q 845 365 849 364 z "},"S":{"ha":906,"x_min":22,"x_max":884,"o":"m 102 767 q 261 851 138 851 l 448 851 l 561 846 q 783 793 724 846 q 851 524 851 739 l 851 495 l 584 490 q 528 500 531 490 q 501 669 509 518 q 444 701 497 702 q 331 645 331 701 q 336 545 331 631 q 351 518 340 528 q 706 416 418 482 q 816 355 778 397 q 884 97 884 271 l 884 64 q 766 -72 880 -16 q 401 -128 618 -127 l 382 -128 q 130 -86 172 -128 q 22 125 22 23 l 22 139 q 54 200 22 200 l 355 195 q 412 162 412 195 l 411 120 q 435 29 411 36 q 505 22 459 22 q 589 134 589 22 q 518 330 597 310 l 174 446 q 78 622 78 508 q 102 767 92 751 z "},"T":{"ha":1028,"x_min":23,"x_max":1006,"o":"m 37 958 q 94 1006 39 1006 l 99 1006 q 1005 980 518 990 l 1006 821 l 686 828 l 700 45 q 531 22 621 22 q 491 23 511 22 q 435 27 463 24 q 469 788 452 404 l 77 802 q 23 834 23 805 l 23 836 l 37 958 z "},"U":{"ha":846,"x_min":22,"x_max":825,"o":"m 381 120 q 471 11 381 7 q 572 21 545 11 q 647 178 652 48 l 617 785 l 810 834 q 825 163 823 227 q 736 -56 820 -3 q 585 -112 663 -102 q 414 -121 494 -121 q 218 -104 307 -121 q 117 10 121 -70 l 132 705 l 47 702 l 22 708 l 24 777 l 33 861 l 33 866 l 397 847 q 433 823 435 844 q 381 120 382 345 z "},"V":{"ha":1025,"x_min":22,"x_max":1003,"o":"m 568 -132 l 489 -101 q 213 570 450 -11 q 103 540 114 545 l 24 708 l 22 713 l 346 810 q 361 813 354 813 q 387 792 380 813 q 624 85 434 555 l 625 89 l 631 78 q 884 696 810 525 l 1003 596 q 636 -143 947 449 l 568 -132 z "},"W":{"ha":1489,"x_min":22,"x_max":1468,"o":"m 355 -75 l 334 -36 q 243 303 304 92 q 199 580 207 511 l 195 648 l 37 640 q 22 653 22 639 q 22 661 22 656 l 28 846 l 28 852 l 444 836 l 458 688 q 509 338 475 534 l 545 138 l 694 407 l 847 694 q 863 708 851 704 l 967 735 q 990 728 982 743 q 1005 678 1003 702 l 1086 386 l 1095 405 l 1190 670 l 1204 717 q 1238 740 1209 743 q 1457 732 1424 739 q 1468 696 1468 722 l 1458 670 l 1204 -68 l 1147 -68 l 1029 -102 l 884 485 l 588 -29 q 355 -75 482 -68 z "},"X":{"ha":935,"x_min":22,"x_max":913,"o":"m 375 356 l 248 551 l 185 526 l 160 557 l 121 611 q 22 791 22 766 q 24 795 22 794 l 223 894 q 244 900 235 900 q 273 882 261 900 l 504 536 q 706 801 658 745 l 902 722 q 913 703 913 715 q 884 650 913 684 l 635 339 l 860 1 q 727 -163 888 -39 l 498 169 l 244 -146 q 167 -168 229 -168 q 41 -155 119 -168 l 38 -121 q 375 356 236 161 z "},"Y":{"ha":799,"x_min":22,"x_max":777,"o":"m 223 845 l 387 463 l 503 704 l 574 862 l 757 851 q 777 813 777 846 q 777 798 777 806 q 338 -102 448 157 q 168 -95 227 -102 q 163 22 94 -93 q 312 328 260 186 l 151 649 l 102 631 l 22 823 l 199 889 l 223 845 z "},"Z":{"ha":985,"x_min":22,"x_max":964,"o":"m 621 652 l 512 654 l 330 660 l 323 600 l 300 587 l 254 586 q 54 614 56 598 l 22 850 q 67 883 23 863 l 832 852 q 912 673 861 851 l 897 648 l 886 648 l 336 175 q 951 176 949 184 q 964 143 960 176 l 964 137 l 962 -35 l 940 -36 q 87 -3 616 -12 l 60 106 q 245 298 121 184 q 621 652 367 448 z "},"[":{"ha":553,"x_min":22,"x_max":531,"o":"m 503 1027 l 531 920 l 239 910 l 176 -135 l 475 -178 l 492 -275 l 393 -246 l 22 -231 l 109 1027 l 349 1017 l 503 1027 z "},"\\":{"ha":860,"x_min":22,"x_max":838,"o":"m 407 450 q 639 58 524 252 q 808 -208 753 -136 q 838 -267 838 -249 q 821 -281 838 -281 l 718 -281 q 634 -218 660 -281 q 161 620 265 450 q 31 822 56 791 q 22 840 22 831 q 60 867 22 857 l 120 869 q 197 816 167 869 q 407 450 228 764 z "},"]":{"ha":530,"x_min":22,"x_max":509,"o":"m 55 -254 l 22 -152 l 353 -116 l 360 907 l 59 926 l 37 1019 l 279 1027 l 509 1014 l 490 -219 l 208 -233 l 55 -254 z "},"^":{"ha":652,"x_min":0,"x_max":0,"o":""},"_":{"ha":1236,"x_min":22,"x_max":1214,"o":"m 761 -161 q 786 -161 772 -162 q 1200 -167 911 -159 q 1214 -226 1214 -167 q 1213 -266 1214 -243 q 1113 -278 1211 -271 l 958 -271 l 24 -243 l 22 -136 q 132 -128 24 -128 q 504 -138 253 -128 l 504 -135 l 761 -158 l 761 -161 z "},"`":{"ha":463,"x_min":0,"x_max":0,"o":""},"a":{"ha":760,"x_min":22,"x_max":739,"o":"m 386 1 q 279 -3 330 -3 q 135 8 201 -3 q 37 87 50 31 q 22 228 22 155 q 22 256 22 242 q 40 317 24 286 q 351 406 75 379 l 408 412 q 453 414 431 413 l 453 498 q 386 579 450 583 q 335 571 351 577 q 319 500 318 565 l 325 469 q 279 443 326 445 q 55 426 177 432 q 29 470 31 425 l 28 482 q 123 646 38 574 q 281 688 207 688 l 291 688 l 304 689 q 580 665 462 688 q 668 573 666 618 l 673 536 q 681 336 676 455 q 668 130 685 216 q 686 109 667 109 l 723 109 q 739 93 739 107 l 739 92 q 728 17 736 56 q 702 -3 722 -4 l 566 -4 q 386 1 467 -4 m 432 264 q 431 266 431 264 q 430 276 431 270 q 430 288 430 281 q 430 300 430 294 q 431 310 430 307 l 431 317 q 401 338 430 342 l 353 335 q 304 303 314 331 q 276 133 271 214 q 346 80 277 75 q 424 120 414 84 l 425 124 q 433 136 425 131 l 432 264 z "},"b":{"ha":709,"x_min":22,"x_max":687,"o":"m 294 566 q 351 566 321 566 q 595 524 490 566 q 684 403 659 486 q 687 271 687 325 q 686 224 687 245 q 661 79 684 163 q 351 0 622 0 l 295 0 q 60 56 93 6 q 30 168 30 99 q 41 263 38 218 l 94 664 l 22 666 q 39 812 33 748 l 41 817 l 292 842 q 294 566 326 838 m 274 208 q 276 109 271 131 q 332 98 286 99 l 337 98 q 403 121 382 98 q 445 332 445 255 l 445 370 l 443 405 q 423 446 440 440 l 384 454 q 300 384 317 454 q 274 208 271 297 z "},"c":{"ha":709,"x_min":22,"x_max":688,"o":"m 50 429 q 359 509 88 509 l 416 509 q 652 453 617 502 q 688 340 688 410 l 688 298 q 661 277 688 277 q 448 289 545 279 q 426 305 427 290 q 426 318 425 310 q 426 335 426 326 q 427 352 427 344 q 429 366 428 361 l 429 377 q 404 410 431 410 l 356 410 q 306 374 317 410 q 263 138 265 254 q 326 54 259 60 q 406 102 393 53 l 407 107 q 450 132 410 131 q 611 125 540 132 q 634 64 635 121 q 359 -58 631 -58 q 115 -16 220 -58 q 26 106 35 27 q 22 224 22 164 q 26 345 22 283 q 50 429 31 386 z "},"d":{"ha":772,"x_min":22,"x_max":751,"o":"m 681 83 q 633 -24 675 14 q 465 -62 603 -62 q 395 -60 433 -62 l 339 -55 q 37 51 68 -31 l 22 136 l 28 258 l 43 375 q 142 489 75 456 q 389 509 250 522 q 440 503 415 507 q 479 863 444 862 l 747 870 l 749 865 l 741 823 l 751 781 l 743 640 l 725 611 l 663 621 q 681 83 669 186 m 441 342 q 346 400 422 398 l 289 391 l 277 321 l 275 283 q 298 70 268 207 q 361 41 316 45 l 366 41 q 413 45 412 37 q 433 143 427 136 q 441 342 444 245 z "},"e":{"ha":709,"x_min":22,"x_max":688,"o":"m 270 153 q 263 67 264 110 q 326 -17 259 -12 q 406 31 393 -18 l 407 36 q 450 60 410 60 q 611 54 540 60 q 634 -7 635 50 q 359 -129 631 -129 q 115 -87 220 -129 q 26 35 35 -44 q 22 153 22 93 q 26 274 22 212 q 50 358 31 315 q 359 438 88 438 l 416 438 q 652 382 617 431 q 688 233 688 338 l 688 191 q 684 177 688 182 l 684 146 l 270 153 m 426 225 q 427 228 426 227 q 427 245 427 237 q 429 295 428 254 l 429 306 q 404 338 431 339 l 356 339 q 306 302 317 339 q 284 228 293 265 l 426 225 z "},"f":{"ha":697,"x_min":22,"x_max":675,"o":"m 167 517 l 167 619 q 167 807 161 772 q 291 869 191 869 l 414 869 q 487 871 454 871 q 636 839 611 871 q 675 644 675 801 l 675 623 q 501 621 588 617 q 464 627 464 621 q 446 743 452 629 q 410 760 440 760 q 350 642 336 760 q 354 527 355 596 q 359 508 357 509 l 444 508 l 526 503 q 563 475 553 502 l 558 405 q 436 391 551 389 l 350 391 q 345 377 348 385 q 335 253 332 302 q 309 40 337 204 q 304 -21 309 14 q 273 -34 292 -34 l 140 -34 q 121 3 127 -32 l 121 21 l 178 317 l 176 387 q 153 395 167 395 l 92 391 l 68 395 q 22 456 22 395 l 36 522 l 167 517 z "},"g":{"ha":718,"x_min":22,"x_max":696,"o":"m 408 472 l 344 469 q 281 267 258 436 l 281 249 q 368 164 279 159 l 393 164 q 448 181 448 167 l 448 195 l 463 434 q 408 472 446 474 m 692 387 q 696 143 696 190 l 696 134 q 682 -56 695 58 l 677 -91 q 587 -191 675 -136 q 307 -241 466 -236 l 293 -241 q 100 -215 163 -237 q 22 -58 38 -189 l 22 -46 q 47 1 23 -1 l 87 -3 l 174 4 l 260 3 l 270 3 q 310 -20 316 5 l 311 -52 l 310 -114 q 389 -123 347 -123 q 463 -35 453 -120 q 465 98 475 65 q 380 87 414 89 l 310 84 q 38 182 77 76 l 32 199 l 31 420 q 142 566 32 513 q 309 588 216 585 q 630 530 588 583 q 692 387 682 498 z "},"h":{"ha":678,"x_min":22,"x_max":656,"o":"m 81 248 l 99 566 l 35 560 l 22 594 l 28 732 l 29 739 l 277 729 q 278 399 306 726 l 283 399 l 283 398 q 461 370 395 385 q 625 300 603 345 q 656 107 656 273 q 640 -201 656 -11 l 638 -222 q 569 -224 603 -224 q 389 -209 473 -224 q 406 231 370 -204 q 366 275 404 275 q 241 243 244 286 q 239 -24 235 186 l 239 -62 l 71 -106 l 74 132 l 81 248 z "},"i":{"ha":422,"x_min":22,"x_max":400,"o":"m 176 252 l 252 252 l 298 247 l 326 252 l 340 223 q 331 -11 331 152 l 331 -142 l 284 -146 l 54 -146 q 22 -77 22 -119 l 22 -62 l 120 -62 l 115 -16 l 111 233 l 106 247 l 176 252 m 26 382 q 180 463 26 445 q 206 467 193 465 q 254 469 231 469 q 298 467 277 469 q 371 447 344 462 q 400 412 398 431 l 400 410 q 389 384 400 397 l 376 370 q 312 336 354 351 q 220 317 269 321 q 214 316 216 316 q 172 312 191 312 l 162 312 l 142 315 q 126 317 134 315 l 122 317 q 46 341 73 319 q 26 371 28 355 l 26 382 z "},"j":{"ha":706,"x_min":22,"x_max":684,"o":"m 474 741 l 684 772 l 667 675 q 640 411 622 524 q 646 184 657 298 l 642 149 q 555 51 642 102 q 315 11 435 22 l 300 11 q 105 44 134 22 q 22 205 22 127 l 22 218 q 47 264 22 264 l 87 260 l 174 264 l 268 260 l 278 260 q 326 235 326 260 l 321 202 l 321 138 q 395 127 359 127 q 459 213 459 127 q 459 545 444 465 q 474 741 465 657 z "},"k":{"ha":790,"x_min":22,"x_max":768,"o":"m 83 248 l 99 566 l 35 560 l 22 593 l 28 732 l 28 738 l 276 730 q 281 427 303 728 q 686 749 673 749 q 760 667 725 732 q 768 639 768 649 q 765 630 768 633 l 399 381 q 520 361 436 372 q 627 304 605 350 q 648 -196 682 260 l 646 -217 l 439 -217 q 397 -206 396 -214 q 409 234 384 -205 q 369 278 380 277 q 244 244 248 288 l 243 234 l 243 189 l 239 187 l 245 -23 l 237 -62 l 83 -104 l 71 -83 l 78 132 l 79 239 l 83 248 z "},"l":{"ha":333,"x_min":22,"x_max":311,"o":"m 54 823 l 279 823 q 311 763 295 819 l 267 -35 q 92 -104 267 -73 l 66 -80 l 92 572 l 35 572 l 22 607 l 22 659 q 54 823 36 823 z "},"m":{"ha":1038,"x_min":22,"x_max":1017,"o":"m 446 644 l 460 642 q 581 659 538 659 q 838 646 724 659 q 977 589 951 632 q 1017 263 1017 562 q 1008 -73 1017 124 l 1008 -94 l 809 -109 l 802 -109 q 756 -102 781 -109 q 764 502 744 -85 q 721 543 756 539 q 623 500 623 543 l 623 489 l 621 442 l 637 183 l 639 146 l 452 113 l 442 328 l 433 529 q 414 545 427 546 q 296 501 296 545 l 296 490 l 294 444 l 330 0 l 326 -40 l 152 -35 l 138 -14 q 108 390 115 141 l 22 394 q 52 653 30 590 l 178 659 q 290 661 211 661 q 446 644 368 661 z "},"n":{"ha":713,"x_min":22,"x_max":691,"o":"m 186 585 q 250 595 213 595 l 258 595 q 492 579 402 590 q 652 510 627 554 q 691 163 691 480 q 684 -154 691 31 l 684 -175 q 554 -186 657 -186 q 431 -183 502 -186 q 436 431 421 -174 q 394 473 421 471 q 294 434 296 477 l 294 424 l 301 61 l 295 21 l 119 -26 l 106 -4 l 105 210 l 106 424 l 22 423 l 22 434 q 60 584 31 584 l 186 585 z "},"o":{"ha":720,"x_min":22,"x_max":698,"o":"m 62 494 q 421 583 66 552 q 589 557 514 583 q 698 344 698 483 l 692 16 l 688 -10 q 408 -172 643 -172 l 337 -172 q 112 -108 186 -172 q 22 73 22 -21 l 41 415 q 62 494 45 459 m 286 376 l 298 28 l 298 9 q 370 -10 298 -10 l 401 -10 q 517 119 517 -10 l 525 397 q 487 431 519 425 l 357 434 q 286 376 308 434 z "},"p":{"ha":718,"x_min":22,"x_max":695,"o":"m 355 457 q 298 398 326 445 q 270 309 270 351 q 268 201 271 268 q 280 107 266 134 q 340 77 294 81 q 411 117 385 73 q 448 263 436 161 q 447 405 460 366 q 409 456 433 443 q 355 457 385 469 m 262 -20 l 262 -47 q 259 -47 260 -47 q 263 -292 256 -172 l 33 -276 l 22 -191 l 29 -157 l 73 -152 l 79 42 q 75 471 81 79 l 75 472 l 79 559 q 262 589 214 587 q 295 589 277 589 l 314 589 q 455 585 407 587 q 532 573 504 582 q 590 534 560 564 q 635 487 620 504 q 668 440 651 470 q 691 368 685 410 q 694 332 693 352 q 695 295 695 315 q 694 252 695 275 q 678 133 690 177 q 651 65 666 89 q 602 21 636 41 q 533 -15 567 2 q 463 -33 500 -33 q 356 -25 427 -33 q 268 -19 286 -18 q 262 -20 264 -19 z "},"q":{"ha":694,"x_min":22,"x_max":673,"o":"m 411 40 q 395 38 403 39 q 147 56 255 24 q 46 167 79 87 l 30 283 l 22 405 l 45 543 q 317 624 74 624 l 331 624 q 625 576 587 621 q 672 468 665 537 q 673 452 673 462 q 646 186 673 391 q 600 -123 610 -58 l 631 -126 q 640 -138 639 -129 q 635 -257 633 -215 q 621 -281 636 -280 l 415 -280 q 411 40 378 -275 m 437 492 q 365 507 412 510 l 359 506 q 297 476 315 500 q 277 262 269 339 l 281 224 l 292 155 l 350 147 q 429 225 416 154 q 436 372 435 315 q 437 492 437 429 z "},"r":{"ha":640,"x_min":22,"x_max":618,"o":"m 92 339 l 24 357 l 22 367 q 56 550 27 549 l 156 557 q 216 568 181 568 l 344 568 q 576 526 541 565 q 618 334 617 488 l 618 315 l 435 311 q 398 318 397 311 q 378 445 386 317 q 340 461 366 462 q 254 421 254 461 l 256 379 l 252 285 l 242 35 l 245 -16 q 134 -39 229 -33 l 78 -41 q 75 -42 76 -42 q 57 -12 64 -42 l 56 5 l 96 290 l 92 339 z "},"s":{"ha":708,"x_min":22,"x_max":686,"o":"m 83 685 q 205 751 111 751 l 350 751 l 437 747 q 603 704 577 747 q 661 498 661 664 l 661 476 l 463 473 l 455 473 q 412 480 412 473 q 390 617 398 480 q 347 635 358 635 q 260 591 260 635 l 260 581 l 267 501 q 549 414 326 466 q 624 368 604 400 q 686 170 686 304 l 683 133 q 596 36 683 87 q 313 -4 475 6 l 300 -4 q 105 28 133 6 q 22 191 22 112 l 22 202 q 47 249 22 249 l 86 244 l 173 249 l 267 244 l 278 244 q 326 220 326 244 l 321 187 l 321 123 q 393 112 358 112 q 459 197 459 112 q 437 339 452 316 l 133 440 q 65 574 65 486 q 83 685 75 673 z "},"t":{"ha":700,"x_min":22,"x_max":678,"o":"m 176 730 l 270 725 q 355 687 355 725 q 359 640 350 643 l 444 640 l 641 635 q 678 608 669 634 l 673 537 q 551 524 666 521 l 350 524 q 345 509 348 517 q 350 397 350 411 q 345 336 350 382 q 343 240 340 289 q 317 26 345 191 q 313 -35 317 1 q 281 -48 300 -48 l 149 -48 q 130 -11 136 -46 l 130 7 l 186 303 l 176 519 q 153 528 167 528 l 92 524 l 68 528 q 22 589 22 528 l 36 654 l 167 650 q 157 720 172 650 q 176 730 167 725 z "},"u":{"ha":699,"x_min":22,"x_max":677,"o":"m 222 7 q 59 76 82 31 q 22 313 22 105 q 31 566 22 417 l 33 587 q 278 551 169 579 q 276 149 292 541 q 317 105 296 106 q 418 142 415 99 l 418 152 l 423 199 l 425 578 l 432 618 q 593 640 549 636 q 606 595 606 618 l 605 525 l 604 431 l 593 148 l 677 123 l 677 113 q 635 -36 665 -36 q 222 7 307 -10 z "},"v":{"ha":637,"x_min":22,"x_max":616,"o":"m 22 656 q 213 671 124 695 l 296 126 l 331 291 q 415 687 366 455 q 436 709 419 709 l 439 709 q 603 677 522 699 q 616 660 616 675 q 611 637 616 650 q 394 43 480 279 q 274 11 319 11 q 235 20 250 11 l 22 656 z "},"w":{"ha":990,"x_min":22,"x_max":968,"o":"m 615 12 l 552 10 q 480 -3 523 -3 q 250 24 336 -3 q 132 67 157 24 q 73 418 73 107 l 73 543 l 22 544 l 34 748 q 232 766 101 762 l 237 766 q 275 759 268 766 q 296 154 289 727 q 340 113 309 113 q 438 157 438 113 q 417 471 439 214 q 444 517 422 511 l 552 551 q 610 543 595 564 l 618 329 l 625 151 q 667 112 635 112 q 765 155 765 112 l 765 165 l 762 212 l 766 213 l 744 657 l 749 696 l 922 692 q 966 258 945 515 q 968 182 968 216 q 879 9 968 1 q 808 -4 850 -4 q 615 12 692 -4 z "},"x":{"ha":722,"x_min":22,"x_max":701,"o":"m 400 456 q 557 665 552 668 l 671 602 q 676 565 679 593 l 485 328 l 678 37 l 701 6 q 566 -68 600 -78 l 382 201 l 156 -78 q 108 -94 144 -94 q 37 -84 80 -94 l 35 -57 q 302 319 161 121 l 199 469 l 159 448 l 130 473 l 100 516 q 22 657 22 637 q 23 661 22 660 l 179 736 q 195 741 187 741 q 227 719 213 741 l 400 456 z "},"y":{"ha":606,"x_min":22,"x_max":584,"o":"m 415 565 l 429 587 l 561 511 q 584 481 584 500 q 579 463 584 473 l 557 420 l 233 -209 l 207 -262 q 180 -269 197 -269 q 92 -248 149 -269 l 41 -229 q 41 -183 28 -222 l 51 -163 l 215 104 l 140 258 l 138 258 l 63 429 l 27 501 q 22 523 22 513 q 56 568 22 549 l 85 577 q 140 529 115 586 l 164 471 l 167 467 l 237 303 l 272 231 l 272 230 q 415 565 354 366 z "},"z":{"ha":720,"x_min":22,"x_max":698,"o":"m 425 554 l 381 555 l 252 559 l 85 559 q 73 734 39 719 l 603 726 q 664 570 625 726 l 652 550 l 614 551 l 443 369 l 230 172 q 463 175 367 174 l 469 203 l 698 215 l 688 154 q 689 148 688 151 l 689 143 l 687 9 l 671 8 q 109 24 424 26 l 22 131 q 163 269 68 179 q 367 484 293 397 l 425 554 z "},"{":{"ha":469,"x_min":22,"x_max":416,"o":"m 22 434 q 146 791 141 614 q 160 986 152 967 q 292 1091 190 1091 l 376 1086 q 416 1059 416 1086 q 391 1002 416 1038 l 311 984 q 273 914 273 984 q 150 451 258 650 q 225 202 225 337 l 224 -35 l 224 -53 q 290 -122 224 -122 q 372 -132 302 -122 q 407 -184 407 -159 q 313 -227 407 -227 l 270 -233 q 138 -127 168 -233 q 111 12 130 -108 q 22 434 118 328 z "},"|":{"ha":98,"x_min":22,"x_max":77,"o":"m 77 964 l 77 -300 l 22 -300 l 22 964 l 77 964 z "},"}":{"ha":496,"x_min":54,"x_max":475,"o":"m 385 -9 q 358 -143 366 -125 q 208 -245 328 -245 l 149 -240 q 56 -199 56 -240 q 90 -156 56 -174 q 180 -146 168 -146 q 273 -78 273 -146 l 273 -62 l 271 113 q 347 434 271 323 q 224 875 238 583 q 158 943 224 943 q 78 960 146 943 q 54 1021 54 999 q 94 1050 54 1050 l 218 1055 q 336 953 307 1055 q 350 756 345 935 q 475 418 355 578 q 385 -9 378 315 z "},"~":{"ha":811,"x_min":0,"x_max":0,"o":""},"Ä":{"ha":926,"x_min":0,"x_max":0,"o":""},"Å":{"ha":926,"x_min":0,"x_max":0,"o":""},"Ç":{"ha":1003,"x_min":0,"x_max":0,"o":""},"É":{"ha":926,"x_min":0,"x_max":0,"o":""},"Ñ":{"ha":1003,"x_min":0,"x_max":0,"o":""},"Ö":{"ha":1080,"x_min":0,"x_max":0,"o":""},"Ü":{"ha":1003,"x_min":0,"x_max":0,"o":""},"á":{"ha":772,"x_min":0,"x_max":0,"o":""},"à":{"ha":772,"x_min":0,"x_max":0,"o":""},"â":{"ha":772,"x_min":0,"x_max":0,"o":""},"ä":{"ha":772,"x_min":0,"x_max":0,"o":""},"ã":{"ha":772,"x_min":0,"x_max":0,"o":""},"å":{"ha":772,"x_min":0,"x_max":0,"o":""},"ç":{"ha":694,"x_min":0,"x_max":0,"o":""},"é":{"ha":772,"x_min":0,"x_max":0,"o":""},"è":{"ha":772,"x_min":0,"x_max":0,"o":""},"ê":{"ha":772,"x_min":0,"x_max":0,"o":""},"ë":{"ha":772,"x_min":0,"x_max":0,"o":""},"í":{"ha":386,"x_min":0,"x_max":0,"o":""},"ì":{"ha":386,"x_min":0,"x_max":0,"o":""},"î":{"ha":386,"x_min":0,"x_max":0,"o":""},"ï":{"ha":386,"x_min":0,"x_max":0,"o":""},"ñ":{"ha":772,"x_min":0,"x_max":0,"o":""},"ó":{"ha":772,"x_min":0,"x_max":0,"o":""},"ò":{"ha":772,"x_min":0,"x_max":0,"o":""},"ô":{"ha":772,"x_min":0,"x_max":0,"o":""},"ö":{"ha":772,"x_min":0,"x_max":0,"o":""},"õ":{"ha":772,"x_min":0,"x_max":0,"o":""},"ú":{"ha":772,"x_min":0,"x_max":0,"o":""},"ù":{"ha":772,"x_min":0,"x_max":0,"o":""},"û":{"ha":772,"x_min":0,"x_max":0,"o":""},"ü":{"ha":772,"x_min":0,"x_max":0,"o":""},"†":{"ha":772,"x_min":0,"x_max":0,"o":""},"°":{"ha":555,"x_min":0,"x_max":0,"o":""},"¢":{"ha":772,"x_min":0,"x_max":0,"o":""},"£":{"ha":772,"x_min":0,"x_max":0,"o":""},"§":{"ha":772,"x_min":0,"x_max":0,"o":""},"•":{"ha":486,"x_min":0,"x_max":0,"o":""},"¶":{"ha":746,"x_min":0,"x_max":0,"o":""},"ß":{"ha":848,"x_min":0,"x_max":0,"o":""},"®":{"ha":1023,"x_min":0,"x_max":0,"o":""},"©":{"ha":1023,"x_min":0,"x_max":0,"o":""},"™":{"ha":1389,"x_min":0,"x_max":0,"o":""},"´":{"ha":463,"x_min":0,"x_max":0,"o":""},"¨":{"ha":463,"x_min":0,"x_max":0,"o":""},"≠":{"ha":762,"x_min":0,"x_max":0,"o":""},"Æ":{"ha":1389,"x_min":0,"x_max":0,"o":""},"Ø":{"ha":1080,"x_min":0,"x_max":0,"o":""},"∞":{"ha":990,"x_min":0,"x_max":0,"o":""},"±":{"ha":762,"x_min":0,"x_max":0,"o":""},"≤":{"ha":762,"x_min":0,"x_max":0,"o":""},"≥":{"ha":762,"x_min":0,"x_max":0,"o":""},"¥":{"ha":772,"x_min":0,"x_max":0,"o":""},"µ":{"ha":800,"x_min":0,"x_max":0,"o":""},"∂":{"ha":686,"x_min":0,"x_max":0,"o":""},"∑":{"ha":990,"x_min":0,"x_max":0,"o":""},"∏":{"ha":1143,"x_min":0,"x_max":0,"o":""},"∫":{"ha":380,"x_min":0,"x_max":0,"o":""},"ª":{"ha":514,"x_min":0,"x_max":0,"o":""},"º":{"ha":507,"x_min":0,"x_max":0,"o":""},"Ω":{"ha":1067,"x_min":0,"x_max":0,"o":""},"æ":{"ha":1235,"x_min":0,"x_max":0,"o":""},"ø":{"ha":848,"x_min":0,"x_max":0,"o":""},"¿":{"ha":848,"x_min":0,"x_max":0,"o":""},"¡":{"ha":463,"x_min":0,"x_max":0,"o":""},"¬":{"ha":811,"x_min":0,"x_max":0,"o":""},"√":{"ha":762,"x_min":0,"x_max":0,"o":""},"ƒ":{"ha":772,"x_min":0,"x_max":0,"o":""},"≈":{"ha":762,"x_min":0,"x_max":0,"o":""},"∆":{"ha":850,"x_min":0,"x_max":0,"o":""},"«":{"ha":772,"x_min":0,"x_max":0,"o":""},"»":{"ha":772,"x_min":0,"x_max":0,"o":""},"…":{"ha":1389,"x_min":0,"x_max":0,"o":""},"À":{"ha":926,"x_min":0,"x_max":0,"o":""},"Ã":{"ha":926,"x_min":0,"x_max":0,"o":""},"Õ":{"ha":1080,"x_min":0,"x_max":0,"o":""},"Œ":{"ha":1389,"x_min":0,"x_max":0,"o":""},"œ":{"ha":1311,"x_min":0,"x_max":0,"o":""},"–":{"ha":772,"x_min":0,"x_max":0,"o":""},"—":{"ha":1389,"x_min":0,"x_max":0,"o":""},"“":{"ha":463,"x_min":0,"x_max":0,"o":""},"”":{"ha":463,"x_min":0,"x_max":0,"o":""},"‘":{"ha":309,"x_min":0,"x_max":0,"o":""},"’":{"ha":309,"x_min":0,"x_max":0,"o":""},"÷":{"ha":762,"x_min":0,"x_max":0,"o":""},"◊":{"ha":686,"x_min":0,"x_max":0,"o":""},"ÿ":{"ha":694,"x_min":0,"x_max":0,"o":""},"Ÿ":{"ha":926,"x_min":0,"x_max":0,"o":""},"⁄":{"ha":232,"x_min":0,"x_max":0,"o":""},"€":{"ha":772,"x_min":0,"x_max":0,"o":""},"‹":{"ha":463,"x_min":0,"x_max":0,"o":""},"›":{"ha":463,"x_min":0,"x_max":0,"o":""},"":{"ha":694,"x_min":0,"x_max":0,"o":""},"":{"ha":694,"x_min":0,"x_max":0,"o":""},"‡":{"ha":772,"x_min":0,"x_max":0,"o":""},"·":{"ha":386,"x_min":0,"x_max":0,"o":""},"‚":{"ha":309,"x_min":0,"x_max":0,"o":""},"„":{"ha":463,"x_min":0,"x_max":0,"o":""},"‰":{"ha":1389,"x_min":0,"x_max":0,"o":""},"Â":{"ha":926,"x_min":0,"x_max":0,"o":""},"Ê":{"ha":926,"x_min":0,"x_max":0,"o":""},"Á":{"ha":926,"x_min":0,"x_max":0,"o":""},"Ë":{"ha":926,"x_min":0,"x_max":0,"o":""},"È":{"ha":926,"x_min":0,"x_max":0,"o":""},"Í":{"ha":386,"x_min":0,"x_max":0,"o":""},"Î":{"ha":386,"x_min":0,"x_max":0,"o":""},"Ï":{"ha":386,"x_min":0,"x_max":0,"o":""},"Ì":{"ha":386,"x_min":0,"x_max":0,"o":""},"Ó":{"ha":1080,"x_min":0,"x_max":0,"o":""},"Ô":{"ha":1080,"x_min":0,"x_max":0,"o":""},"Ò":{"ha":1080,"x_min":0,"x_max":0,"o":""},"Ú":{"ha":1003,"x_min":0,"x_max":0,"o":""},"Û":{"ha":1003,"x_min":0,"x_max":0,"o":""},"Ù":{"ha":1003,"x_min":0,"x_max":0,"o":""},"ı":{"ha":386,"x_min":0,"x_max":0,"o":""},"ˆ":{"ha":463,"x_min":0,"x_max":0,"o":""},"˜":{"ha":463,"x_min":0,"x_max":0,"o":""},"ˉ":{"ha":463,"x_min":0,"x_max":0,"o":""},"˘":{"ha":463,"x_min":0,"x_max":0,"o":""},"˙":{"ha":463,"x_min":0,"x_max":0,"o":""},"˚":{"ha":463,"x_min":0,"x_max":0,"o":""},"¸":{"ha":463,"x_min":0,"x_max":0,"o":""},"˝":{"ha":463,"x_min":0,"x_max":0,"o":""},"˛":{"ha":463,"x_min":0,"x_max":0,"o":""},"ˇ":{"ha":463,"x_min":0,"x_max":0,"o":""},"Ł":{"ha":772,"x_min":0,"x_max":0,"o":""},"ł":{"ha":309,"x_min":0,"x_max":0,"o":""},"Š":{"ha":926,"x_min":0,"x_max":0,"o":""},"š":{"ha":694,"x_min":0,"x_max":0,"o":""},"Ž":{"ha":848,"x_min":0,"x_max":0,"o":""},"ž":{"ha":694,"x_min":0,"x_max":0,"o":""},"¦":{"ha":361,"x_min":0,"x_max":0,"o":""},"Ð":{"ha":1003,"x_min":0,"x_max":0,"o":""},"ð":{"ha":772,"x_min":0,"x_max":0,"o":""},"Ý":{"ha":926,"x_min":0,"x_max":0,"o":""},"ý":{"ha":694,"x_min":0,"x_max":0,"o":""},"Þ":{"ha":926,"x_min":0,"x_max":0,"o":""},"þ":{"ha":772,"x_min":0,"x_max":0,"o":""},"−":{"ha":811,"x_min":0,"x_max":0,"o":""},"×":{"ha":811,"x_min":0,"x_max":0,"o":""},"¹":{"ha":463,"x_min":0,"x_max":0,"o":""},"²":{"ha":463,"x_min":0,"x_max":0,"o":""},"³":{"ha":463,"x_min":0,"x_max":0,"o":""},"½":{"ha":1158,"x_min":0,"x_max":0,"o":""},"¼":{"ha":1158,"x_min":0,"x_max":0,"o":""},"¾":{"ha":1158,"x_min":0,"x_max":0,"o":""},"₣":{"ha":772,"x_min":0,"x_max":0,"o":""},"Ğ":{"ha":1080,"x_min":0,"x_max":0,"o":""},"ğ":{"ha":772,"x_min":0,"x_max":0,"o":""},"İ":{"ha":386,"x_min":0,"x_max":0,"o":""},"Ş":{"ha":926,"x_min":0,"x_max":0,"o":""},"ş":{"ha":694,"x_min":0,"x_max":0,"o":""},"Ć":{"ha":1003,"x_min":0,"x_max":0,"o":""},"ć":{"ha":694,"x_min":0,"x_max":0,"o":""},"Č":{"ha":1003,"x_min":0,"x_max":0,"o":""},"č":{"ha":694,"x_min":0,"x_max":0,"o":""},"đ":{"ha":772,"x_min":0,"x_max":0,"o":""},"¤":{"ha":772,"x_min":0,"x_max":0,"o":""},"¯":{"ha":767,"x_min":0,"x_max":0,"o":""},"Ā":{"ha":926,"x_min":0,"x_max":0,"o":""},"ā":{"ha":772,"x_min":0,"x_max":0,"o":""},"Ă":{"ha":926,"x_min":0,"x_max":0,"o":""},"ă":{"ha":772,"x_min":0,"x_max":0,"o":""},"Ą":{"ha":926,"x_min":0,"x_max":0,"o":""},"ą":{"ha":772,"x_min":0,"x_max":0,"o":""},"Ĉ":{"ha":1003,"x_min":0,"x_max":0,"o":""},"ĉ":{"ha":694,"x_min":0,"x_max":0,"o":""},"Ċ":{"ha":1003,"x_min":0,"x_max":0,"o":""},"ċ":{"ha":694,"x_min":0,"x_max":0,"o":""},"Ď":{"ha":1003,"x_min":0,"x_max":0,"o":""},"ď":{"ha":854,"x_min":0,"x_max":0,"o":""},"Đ":{"ha":1003,"x_min":0,"x_max":0,"o":""},"Ē":{"ha":926,"x_min":0,"x_max":0,"o":""},"ē":{"ha":772,"x_min":0,"x_max":0,"o":""},"Ĕ":{"ha":926,"x_min":0,"x_max":0,"o":""},"ĕ":{"ha":772,"x_min":0,"x_max":0,"o":""},"Ė":{"ha":926,"x_min":0,"x_max":0,"o":""},"ė":{"ha":772,"x_min":0,"x_max":0,"o":""},"Ę":{"ha":926,"x_min":0,"x_max":0,"o":""},"ę":{"ha":772,"x_min":0,"x_max":0,"o":""},"Ě":{"ha":926,"x_min":0,"x_max":0,"o":""},"ě":{"ha":772,"x_min":0,"x_max":0,"o":""},"Ĝ":{"ha":1080,"x_min":0,"x_max":0,"o":""},"ĝ":{"ha":772,"x_min":0,"x_max":0,"o":""},"Ġ":{"ha":1080,"x_min":0,"x_max":0,"o":""},"ġ":{"ha":772,"x_min":0,"x_max":0,"o":""},"Ģ":{"ha":1080,"x_min":0,"x_max":0,"o":""},"ģ":{"ha":772,"x_min":0,"x_max":0,"o":""},"Ĥ":{"ha":1003,"x_min":0,"x_max":0,"o":""},"ĥ":{"ha":772,"x_min":0,"x_max":0,"o":""},"Ħ":{"ha":1003,"x_min":0,"x_max":0,"o":""},"ħ":{"ha":772,"x_min":0,"x_max":0,"o":""},"Ĩ":{"ha":386,"x_min":0,"x_max":0,"o":""},"ĩ":{"ha":386,"x_min":0,"x_max":0,"o":""},"Ī":{"ha":386,"x_min":0,"x_max":0,"o":""},"ī":{"ha":386,"x_min":0,"x_max":0,"o":""},"Ĭ":{"ha":386,"x_min":0,"x_max":0,"o":""},"ĭ":{"ha":386,"x_min":0,"x_max":0,"o":""},"Į":{"ha":386,"x_min":0,"x_max":0,"o":""},"į":{"ha":309,"x_min":0,"x_max":0,"o":""},"Ĳ":{"ha":1021,"x_min":0,"x_max":0,"o":""},"ĳ":{"ha":616,"x_min":0,"x_max":0,"o":""},"Ĵ":{"ha":694,"x_min":0,"x_max":0,"o":""},"ĵ":{"ha":309,"x_min":0,"x_max":0,"o":""},"Ķ":{"ha":926,"x_min":0,"x_max":0,"o":""},"ķ":{"ha":694,"x_min":0,"x_max":0,"o":""},"ĸ":{"ha":694,"x_min":0,"x_max":0,"o":""},"Ĺ":{"ha":772,"x_min":0,"x_max":0,"o":""},"ĺ":{"ha":309,"x_min":0,"x_max":0,"o":""},"Ļ":{"ha":772,"x_min":0,"x_max":0,"o":""},"ļ":{"ha":309,"x_min":0,"x_max":0,"o":""},"Ľ":{"ha":772,"x_min":0,"x_max":0,"o":""},"ľ":{"ha":405,"x_min":0,"x_max":0,"o":""},"Ŀ":{"ha":772,"x_min":0,"x_max":0,"o":""},"ŀ":{"ha":464,"x_min":0,"x_max":0,"o":""},"Ń":{"ha":1003,"x_min":0,"x_max":0,"o":""},"ń":{"ha":772,"x_min":0,"x_max":0,"o":""},"Ņ":{"ha":1003,"x_min":0,"x_max":0,"o":""},"ņ":{"ha":772,"x_min":0,"x_max":0,"o":""},"Ň":{"ha":1003,"x_min":0,"x_max":0,"o":""},"ň":{"ha":772,"x_min":0,"x_max":0,"o":""},"ŉ":{"ha":839,"x_min":0,"x_max":0,"o":""},"Ŋ":{"ha":1004,"x_min":0,"x_max":0,"o":""},"ŋ":{"ha":772,"x_min":0,"x_max":0,"o":""},"Ō":{"ha":1080,"x_min":0,"x_max":0,"o":""},"ō":{"ha":772,"x_min":0,"x_max":0,"o":""},"Ŏ":{"ha":1080,"x_min":0,"x_max":0,"o":""},"ŏ":{"ha":772,"x_min":0,"x_max":0,"o":""},"Ő":{"ha":1080,"x_min":0,"x_max":0,"o":""},"ő":{"ha":772,"x_min":0,"x_max":0,"o":""},"Ŕ":{"ha":1003,"x_min":0,"x_max":0,"o":""},"ŕ":{"ha":463,"x_min":0,"x_max":0,"o":""},"Ŗ":{"ha":1003,"x_min":0,"x_max":0,"o":""},"ŗ":{"ha":463,"x_min":0,"x_max":0,"o":""},"Ř":{"ha":1003,"x_min":0,"x_max":0,"o":""},"ř":{"ha":463,"x_min":0,"x_max":0,"o":""},"Ś":{"ha":926,"x_min":0,"x_max":0,"o":""},"ś":{"ha":694,"x_min":0,"x_max":0,"o":""},"Ŝ":{"ha":926,"x_min":0,"x_max":0,"o":""},"ŝ":{"ha":694,"x_min":0,"x_max":0,"o":""},"Ţ":{"ha":848,"x_min":0,"x_max":0,"o":""},"ţ":{"ha":386,"x_min":0,"x_max":0,"o":""},"Ť":{"ha":848,"x_min":0,"x_max":0,"o":""},"ť":{"ha":521,"x_min":0,"x_max":0,"o":""},"Ŧ":{"ha":848,"x_min":0,"x_max":0,"o":""},"ŧ":{"ha":386,"x_min":0,"x_max":0,"o":""},"Ũ":{"ha":1003,"x_min":0,"x_max":0,"o":""},"ũ":{"ha":772,"x_min":0,"x_max":0,"o":""},"Ū":{"ha":1003,"x_min":0,"x_max":0,"o":""},"ū":{"ha":772,"x_min":0,"x_max":0,"o":""},"Ŭ":{"ha":1003,"x_min":0,"x_max":0,"o":""},"ŭ":{"ha":772,"x_min":0,"x_max":0,"o":""},"Ů":{"ha":1003,"x_min":0,"x_max":0,"o":""},"ů":{"ha":772,"x_min":0,"x_max":0,"o":""},"Ű":{"ha":1003,"x_min":0,"x_max":0,"o":""},"ű":{"ha":772,"x_min":0,"x_max":0,"o":""},"Ų":{"ha":1003,"x_min":0,"x_max":0,"o":""},"ų":{"ha":772,"x_min":0,"x_max":0,"o":""},"Ŵ":{"ha":1311,"x_min":0,"x_max":0,"o":""},"ŵ":{"ha":1003,"x_min":0,"x_max":0,"o":""},"Ŷ":{"ha":926,"x_min":0,"x_max":0,"o":""},"ŷ":{"ha":694,"x_min":0,"x_max":0,"o":""},"Ź":{"ha":848,"x_min":0,"x_max":0,"o":""},"ź":{"ha":694,"x_min":0,"x_max":0,"o":""},"Ż":{"ha":848,"x_min":0,"x_max":0,"o":""},"ż":{"ha":694,"x_min":0,"x_max":0,"o":""},"ſ":{"ha":309,"x_min":0,"x_max":0,"o":""},"Ǻ":{"ha":926,"x_min":0,"x_max":0,"o":""},"ǻ":{"ha":772,"x_min":0,"x_max":0,"o":""},"Ǽ":{"ha":1389,"x_min":0,"x_max":0,"o":""},"ǽ":{"ha":1235,"x_min":0,"x_max":0,"o":""},"Ǿ":{"ha":1080,"x_min":0,"x_max":0,"o":""},"ǿ":{"ha":848,"x_min":0,"x_max":0,"o":""},"΄":{"ha":463,"x_min":0,"x_max":0,"o":""},"΅":{"ha":463,"x_min":0,"x_max":0,"o":""},"Ά":{"ha":927,"x_min":0,"x_max":0,"o":""},"·":{"ha":386,"x_min":0,"x_max":0,"o":""},"Έ":{"ha":1089,"x_min":0,"x_max":0,"o":""},"Ή":{"ha":1164,"x_min":0,"x_max":0,"o":""},"Ί":{"ha":533,"x_min":0,"x_max":0,"o":""},"Ό":{"ha":1076,"x_min":0,"x_max":0,"o":""},"Ύ":{"ha":1188,"x_min":0,"x_max":0,"o":""},"Ώ":{"ha":1045,"x_min":0,"x_max":0,"o":""},"ΐ":{"ha":309,"x_min":0,"x_max":0,"o":""},"Α":{"ha":926,"x_min":0,"x_max":0,"o":""},"Β":{"ha":926,"x_min":0,"x_max":0,"o":""},"Γ":{"ha":765,"x_min":0,"x_max":0,"o":""},"Δ":{"ha":928,"x_min":0,"x_max":0,"o":""},"Ε":{"ha":926,"x_min":0,"x_max":0,"o":""},"Ζ":{"ha":848,"x_min":0,"x_max":0,"o":""},"Η":{"ha":1003,"x_min":0,"x_max":0,"o":""},"Θ":{"ha":1080,"x_min":0,"x_max":0,"o":""},"Ι":{"ha":386,"x_min":0,"x_max":0,"o":""},"Κ":{"ha":926,"x_min":0,"x_max":0,"o":""},"Λ":{"ha":928,"x_min":0,"x_max":0,"o":""},"Μ":{"ha":1157,"x_min":0,"x_max":0,"o":""},"Ν":{"ha":1003,"x_min":0,"x_max":0,"o":""},"Ξ":{"ha":903,"x_min":0,"x_max":0,"o":""},"Ο":{"ha":1080,"x_min":0,"x_max":0,"o":""},"Π":{"ha":1003,"x_min":0,"x_max":0,"o":""},"Ρ":{"ha":926,"x_min":0,"x_max":0,"o":""},"Σ":{"ha":859,"x_min":0,"x_max":0,"o":""},"Τ":{"ha":848,"x_min":0,"x_max":0,"o":""},"Υ":{"ha":926,"x_min":0,"x_max":0,"o":""},"Φ":{"ha":1108,"x_min":0,"x_max":0,"o":""},"Χ":{"ha":926,"x_min":0,"x_max":0,"o":""},"Ψ":{"ha":1160,"x_min":0,"x_max":0,"o":""},"Ω":{"ha":1038,"x_min":0,"x_max":0,"o":""},"Ϊ":{"ha":386,"x_min":0,"x_max":0,"o":""},"Ϋ":{"ha":926,"x_min":0,"x_max":0,"o":""},"ά":{"ha":803,"x_min":0,"x_max":0,"o":""},"έ":{"ha":619,"x_min":0,"x_max":0,"o":""},"ή":{"ha":772,"x_min":0,"x_max":0,"o":""},"ί":{"ha":309,"x_min":0,"x_max":0,"o":""},"ΰ":{"ha":760,"x_min":0,"x_max":0,"o":""},"α":{"ha":803,"x_min":0,"x_max":0,"o":""},"β":{"ha":799,"x_min":0,"x_max":0,"o":""},"γ":{"ha":694,"x_min":0,"x_max":0,"o":""},"δ":{"ha":773,"x_min":0,"x_max":0,"o":""},"ε":{"ha":619,"x_min":0,"x_max":0,"o":""},"ζ":{"ha":612,"x_min":0,"x_max":0,"o":""},"η":{"ha":772,"x_min":0,"x_max":0,"o":""},"θ":{"ha":772,"x_min":0,"x_max":0,"o":""},"ι":{"ha":309,"x_min":0,"x_max":0,"o":""},"κ":{"ha":694,"x_min":0,"x_max":0,"o":""},"λ":{"ha":694,"x_min":0,"x_max":0,"o":""},"μ":{"ha":800,"x_min":0,"x_max":0,"o":""},"ν":{"ha":694,"x_min":0,"x_max":0,"o":""},"ξ":{"ha":622,"x_min":0,"x_max":0,"o":""},"ο":{"ha":772,"x_min":0,"x_max":0,"o":""},"π":{"ha":958,"x_min":0,"x_max":0,"o":""},"ρ":{"ha":790,"x_min":0,"x_max":0,"o":""},"ς":{"ha":669,"x_min":0,"x_max":0,"o":""},"σ":{"ha":857,"x_min":0,"x_max":0,"o":""},"τ":{"ha":549,"x_min":0,"x_max":0,"o":""},"υ":{"ha":760,"x_min":0,"x_max":0,"o":""},"φ":{"ha":901,"x_min":0,"x_max":0,"o":""},"χ":{"ha":729,"x_min":0,"x_max":0,"o":""},"ψ":{"ha":990,"x_min":0,"x_max":0,"o":""},"ω":{"ha":1084,"x_min":0,"x_max":0,"o":""},"ϊ":{"ha":309,"x_min":0,"x_max":0,"o":""},"ϋ":{"ha":760,"x_min":0,"x_max":0,"o":""},"ό":{"ha":772,"x_min":0,"x_max":0,"o":""},"ύ":{"ha":760,"x_min":0,"x_max":0,"o":""},"ώ":{"ha":1084,"x_min":0,"x_max":0,"o":""},"Ё":{"ha":927,"x_min":0,"x_max":0,"o":""},"Ђ":{"ha":1201,"x_min":0,"x_max":0,"o":""},"Ѓ":{"ha":752,"x_min":0,"x_max":0,"o":""},"Є":{"ha":998,"x_min":0,"x_max":0,"o":""},"Ѕ":{"ha":926,"x_min":0,"x_max":0,"o":""},"І":{"ha":386,"x_min":0,"x_max":0,"o":""},"Ї":{"ha":386,"x_min":0,"x_max":0,"o":""},"Ј":{"ha":694,"x_min":0,"x_max":0,"o":""},"Љ":{"ha":1468,"x_min":0,"x_max":0,"o":""},"Њ":{"ha":1403,"x_min":0,"x_max":0,"o":""},"Ћ":{"ha":1186,"x_min":0,"x_max":0,"o":""},"Ќ":{"ha":809,"x_min":0,"x_max":0,"o":""},"Ў":{"ha":882,"x_min":0,"x_max":0,"o":""},"Џ":{"ha":998,"x_min":0,"x_max":0,"o":""},"А":{"ha":926,"x_min":0,"x_max":0,"o":""},"Б":{"ha":911,"x_min":0,"x_max":0,"o":""},"В":{"ha":926,"x_min":0,"x_max":0,"o":""},"Г":{"ha":752,"x_min":0,"x_max":0,"o":""},"Д":{"ha":941,"x_min":0,"x_max":0,"o":""},"Е":{"ha":926,"x_min":0,"x_max":0,"o":""},"Ж":{"ha":1282,"x_min":0,"x_max":0,"o":""},"З":{"ha":839,"x_min":0,"x_max":0,"o":""},"И":{"ha":998,"x_min":0,"x_max":0,"o":""},"Й":{"ha":998,"x_min":0,"x_max":0,"o":""},"К":{"ha":809,"x_min":0,"x_max":0,"o":""},"Л":{"ha":911,"x_min":0,"x_max":0,"o":""},"М":{"ha":1157,"x_min":0,"x_max":0,"o":""},"Н":{"ha":1003,"x_min":0,"x_max":0,"o":""},"О":{"ha":1080,"x_min":0,"x_max":0,"o":""},"П":{"ha":998,"x_min":0,"x_max":0,"o":""},"Р":{"ha":926,"x_min":0,"x_max":0,"o":""},"С":{"ha":1003,"x_min":0,"x_max":0,"o":""},"Т":{"ha":848,"x_min":0,"x_max":0,"o":""},"У":{"ha":882,"x_min":0,"x_max":0,"o":""},"Ф":{"ha":1056,"x_min":0,"x_max":0,"o":""},"Х":{"ha":926,"x_min":0,"x_max":0,"o":""},"Ц":{"ha":1027,"x_min":0,"x_max":0,"o":""},"Ч":{"ha":926,"x_min":0,"x_max":0,"o":""},"Ш":{"ha":1273,"x_min":0,"x_max":0,"o":""},"Щ":{"ha":1302,"x_min":0,"x_max":0,"o":""},"Ъ":{"ha":1099,"x_min":0,"x_max":0,"o":""},"Ы":{"ha":1230,"x_min":0,"x_max":0,"o":""},"Ь":{"ha":911,"x_min":0,"x_max":0,"o":""},"Э":{"ha":998,"x_min":0,"x_max":0,"o":""},"Ю":{"ha":1403,"x_min":0,"x_max":0,"o":""},"Я":{"ha":1003,"x_min":0,"x_max":0,"o":""},"а":{"ha":772,"x_min":0,"x_max":0,"o":""},"б":{"ha":795,"x_min":0,"x_max":0,"o":""},"в":{"ha":738,"x_min":0,"x_max":0,"o":""},"г":{"ha":507,"x_min":0,"x_max":0,"o":""},"д":{"ha":810,"x_min":0,"x_max":0,"o":""},"е":{"ha":772,"x_min":0,"x_max":0,"o":""},"ж":{"ha":929,"x_min":0,"x_max":0,"o":""},"з":{"ha":637,"x_min":0,"x_max":0,"o":""},"и":{"ha":776,"x_min":0,"x_max":0,"o":""},"й":{"ha":776,"x_min":0,"x_max":0,"o":""},"к":{"ha":608,"x_min":0,"x_max":0,"o":""},"л":{"ha":810,"x_min":0,"x_max":0,"o":""},"м":{"ha":955,"x_min":0,"x_max":0,"o":""},"н":{"ha":767,"x_min":0,"x_max":0,"o":""},"о":{"ha":772,"x_min":0,"x_max":0,"o":""},"п":{"ha":752,"x_min":0,"x_max":0,"o":""},"р":{"ha":772,"x_min":0,"x_max":0,"o":""},"с":{"ha":694,"x_min":0,"x_max":0,"o":""},"т":{"ha":636,"x_min":0,"x_max":0,"o":""},"у":{"ha":694,"x_min":0,"x_max":0,"o":""},"ф":{"ha":1143,"x_min":0,"x_max":0,"o":""},"х":{"ha":694,"x_min":0,"x_max":0,"o":""},"ц":{"ha":795,"x_min":0,"x_max":0,"o":""},"ч":{"ha":724,"x_min":0,"x_max":0,"o":""},"ш":{"ha":1114,"x_min":0,"x_max":0,"o":""},"щ":{"ha":1143,"x_min":0,"x_max":0,"o":""},"ъ":{"ha":868,"x_min":0,"x_max":0,"o":""},"ы":{"ha":998,"x_min":0,"x_max":0,"o":""},"ь":{"ha":724,"x_min":0,"x_max":0,"o":""},"э":{"ha":709,"x_min":0,"x_max":0,"o":""},"ю":{"ha":1042,"x_min":0,"x_max":0,"o":""},"я":{"ha":752,"x_min":0,"x_max":0,"o":""},"ё":{"ha":772,"x_min":0,"x_max":0,"o":""},"ђ":{"ha":772,"x_min":0,"x_max":0,"o":""},"ѓ":{"ha":507,"x_min":0,"x_max":0,"o":""},"є":{"ha":709,"x_min":0,"x_max":0,"o":""},"ѕ":{"ha":694,"x_min":0,"x_max":0,"o":""},"і":{"ha":309,"x_min":0,"x_max":0,"o":""},"ї":{"ha":386,"x_min":0,"x_max":0,"o":""},"ј":{"ha":309,"x_min":0,"x_max":0,"o":""},"љ":{"ha":1259,"x_min":0,"x_max":0,"o":""},"њ":{"ha":1128,"x_min":0,"x_max":0,"o":""},"ћ":{"ha":772,"x_min":0,"x_max":0,"o":""},"ќ":{"ha":608,"x_min":0,"x_max":0,"o":""},"ў":{"ha":694,"x_min":0,"x_max":0,"o":""},"џ":{"ha":767,"x_min":0,"x_max":0,"o":""},"Ґ":{"ha":679,"x_min":0,"x_max":0,"o":""},"ґ":{"ha":571,"x_min":0,"x_max":0,"o":""},"Ẁ":{"ha":1311,"x_min":0,"x_max":0,"o":""},"ẁ":{"ha":1003,"x_min":0,"x_max":0,"o":""},"Ẃ":{"ha":1311,"x_min":0,"x_max":0,"o":""},"ẃ":{"ha":1003,"x_min":0,"x_max":0,"o":""},"Ẅ":{"ha":1311,"x_min":0,"x_max":0,"o":""},"ẅ":{"ha":1003,"x_min":0,"x_max":0,"o":""},"Ỳ":{"ha":926,"x_min":0,"x_max":0,"o":""},"ỳ":{"ha":694,"x_min":0,"x_max":0,"o":""},"―":{"ha":1389,"x_min":0,"x_max":0,"o":""},"‗":{"ha":767,"x_min":0,"x_max":0,"o":""},"‛":{"ha":309,"x_min":0,"x_max":0,"o":""},"′":{"ha":260,"x_min":0,"x_max":0,"o":""},"″":{"ha":492,"x_min":0,"x_max":0,"o":""},"‼":{"ha":694,"x_min":0,"x_max":0,"o":""},"‾":{"ha":463,"x_min":0,"x_max":0,"o":""},"ⁿ":{"ha":507,"x_min":0,"x_max":0,"o":""},"₤":{"ha":772,"x_min":0,"x_max":0,"o":""},"₧":{"ha":1519,"x_min":0,"x_max":0,"o":""},"℅":{"ha":1230,"x_min":0,"x_max":0,"o":""},"ℓ":{"ha":449,"x_min":0,"x_max":0,"o":""},"№":{"ha":1490,"x_min":0,"x_max":0,"o":""},"℮":{"ha":833,"x_min":0,"x_max":0,"o":""},"⅛":{"ha":1158,"x_min":0,"x_max":0,"o":""},"⅜":{"ha":1158,"x_min":0,"x_max":0,"o":""},"⅝":{"ha":1158,"x_min":0,"x_max":0,"o":""},"⅞":{"ha":1158,"x_min":0,"x_max":0,"o":""},"←":{"ha":1389,"x_min":0,"x_max":0,"o":""},"↑":{"ha":694,"x_min":0,"x_max":0,"o":""},"→":{"ha":1389,"x_min":0,"x_max":0,"o":""},"↓":{"ha":694,"x_min":0,"x_max":0,"o":""},"↔":{"ha":1389,"x_min":0,"x_max":0,"o":""},"↕":{"ha":694,"x_min":0,"x_max":0,"o":""},"↨":{"ha":694,"x_min":0,"x_max":0,"o":""},"∟":{"ha":1360,"x_min":0,"x_max":0,"o":""},"∩":{"ha":998,"x_min":0,"x_max":0,"o":""},"≡":{"ha":810,"x_min":0,"x_max":0,"o":""},"⌂":{"ha":839,"x_min":0,"x_max":0,"o":""},"⌐":{"ha":811,"x_min":0,"x_max":0,"o":""},"⌠":{"ha":839,"x_min":0,"x_max":0,"o":""},"⌡":{"ha":839,"x_min":0,"x_max":0,"o":""},"─":{"ha":984,"x_min":0,"x_max":0,"o":""},"│":{"ha":868,"x_min":0,"x_max":0,"o":""},"┌":{"ha":984,"x_min":0,"x_max":0,"o":""},"┐":{"ha":984,"x_min":0,"x_max":0,"o":""},"└":{"ha":984,"x_min":0,"x_max":0,"o":""},"┘":{"ha":984,"x_min":0,"x_max":0,"o":""},"├":{"ha":984,"x_min":0,"x_max":0,"o":""},"┤":{"ha":984,"x_min":0,"x_max":0,"o":""},"┬":{"ha":984,"x_min":0,"x_max":0,"o":""},"┴":{"ha":984,"x_min":0,"x_max":0,"o":""},"┼":{"ha":984,"x_min":0,"x_max":0,"o":""},"═":{"ha":984,"x_min":0,"x_max":0,"o":""},"║":{"ha":984,"x_min":0,"x_max":0,"o":""},"╒":{"ha":984,"x_min":0,"x_max":0,"o":""},"╓":{"ha":984,"x_min":0,"x_max":0,"o":""},"╔":{"ha":984,"x_min":0,"x_max":0,"o":""},"╕":{"ha":984,"x_min":0,"x_max":0,"o":""},"╖":{"ha":984,"x_min":0,"x_max":0,"o":""},"╗":{"ha":984,"x_min":0,"x_max":0,"o":""},"╘":{"ha":984,"x_min":0,"x_max":0,"o":""},"╙":{"ha":984,"x_min":0,"x_max":0,"o":""},"╚":{"ha":984,"x_min":0,"x_max":0,"o":""},"╛":{"ha":984,"x_min":0,"x_max":0,"o":""},"╜":{"ha":984,"x_min":0,"x_max":0,"o":""},"╝":{"ha":984,"x_min":0,"x_max":0,"o":""},"╞":{"ha":984,"x_min":0,"x_max":0,"o":""},"╟":{"ha":984,"x_min":0,"x_max":0,"o":""},"╠":{"ha":984,"x_min":0,"x_max":0,"o":""},"╡":{"ha":984,"x_min":0,"x_max":0,"o":""},"╢":{"ha":984,"x_min":0,"x_max":0,"o":""},"╣":{"ha":984,"x_min":0,"x_max":0,"o":""},"╤":{"ha":984,"x_min":0,"x_max":0,"o":""},"╥":{"ha":984,"x_min":0,"x_max":0,"o":""},"╦":{"ha":984,"x_min":0,"x_max":0,"o":""},"╧":{"ha":984,"x_min":0,"x_max":0,"o":""},"╨":{"ha":984,"x_min":0,"x_max":0,"o":""},"╩":{"ha":984,"x_min":0,"x_max":0,"o":""},"╪":{"ha":984,"x_min":0,"x_max":0,"o":""},"╫":{"ha":984,"x_min":0,"x_max":0,"o":""},"╬":{"ha":984,"x_min":0,"x_max":0,"o":""},"▀":{"ha":984,"x_min":0,"x_max":0,"o":""},"▄":{"ha":984,"x_min":0,"x_max":0,"o":""},"█":{"ha":984,"x_min":0,"x_max":0,"o":""},"▌":{"ha":984,"x_min":0,"x_max":0,"o":""},"▐":{"ha":984,"x_min":0,"x_max":0,"o":""},"░":{"ha":984,"x_min":0,"x_max":0,"o":""},"▒":{"ha":984,"x_min":0,"x_max":0,"o":""},"▓":{"ha":1013,"x_min":0,"x_max":0,"o":""},"■":{"ha":839,"x_min":0,"x_max":0,"o":""},"□":{"ha":839,"x_min":0,"x_max":0,"o":""},"▪":{"ha":492,"x_min":0,"x_max":0,"o":""},"▫":{"ha":492,"x_min":0,"x_max":0,"o":""},"▬":{"ha":1389,"x_min":0,"x_max":0,"o":""},"▲":{"ha":1375,"x_min":0,"x_max":0,"o":""},"►":{"ha":1375,"x_min":0,"x_max":0,"o":""},"▼":{"ha":1375,"x_min":0,"x_max":0,"o":""},"◄":{"ha":1375,"x_min":0,"x_max":0,"o":""},"○":{"ha":839,"x_min":0,"x_max":0,"o":""},"●":{"ha":839,"x_min":0,"x_max":0,"o":""},"◘":{"ha":839,"x_min":0,"x_max":0,"o":""},"◙":{"ha":839,"x_min":0,"x_max":0,"o":""},"◦":{"ha":492,"x_min":0,"x_max":0,"o":""},"☺":{"ha":1418,"x_min":0,"x_max":0,"o":""},"☻":{"ha":1461,"x_min":0,"x_max":0,"o":""},"☼":{"ha":1273,"x_min":0,"x_max":0,"o":""},"♀":{"ha":1042,"x_min":0,"x_max":0,"o":""},"♂":{"ha":1042,"x_min":0,"x_max":0,"o":""},"♠":{"ha":738,"x_min":0,"x_max":0,"o":""},"♣":{"ha":911,"x_min":0,"x_max":0,"o":""},"♥":{"ha":825,"x_min":0,"x_max":0,"o":""},"♦":{"ha":709,"x_min":0,"x_max":0,"o":""},"♪":{"ha":694,"x_min":0,"x_max":0,"o":""},"♫":{"ha":1042,"x_min":0,"x_max":0,"o":""},"":{"ha":463,"x_min":0,"x_max":0,"o":""},"":{"ha":463,"x_min":0,"x_max":0,"o":""}}}
